<?xml version="1.0" standalone="no"?>
<!DOCTYPE svg PUBLIC "-//W3C//DTD SVG 1.1//EN" "http://www.w3.org/Graphics/SVG/1.1/DTD/svg11.dtd" >
<svg xmlns="http://www.w3.org/2000/svg" xmlns:xlink="http://www.w3.org/1999/xlink" version="1.1">
<metadata></metadata>
<defs>
<font id="marskeregular" horiz-adv-x="1024" >
<font-face units-per-em="2048" ascent="1536" descent="-512" />
<missing-glyph horiz-adv-x="512" />
<glyph horiz-adv-x="0" />
<glyph unicode="&#xd;" horiz-adv-x="512" />
<glyph unicode=" "  horiz-adv-x="512" />
<glyph unicode="&#x09;" horiz-adv-x="512" />
<glyph unicode="&#xa0;" horiz-adv-x="512" />
<glyph unicode="0" d="M0 188v64q0 27 18 45l740 741v9l-90 90h-453l-88 -90v-541q0 -27 -18.5 -45.5t-45.5 -18.5t-45 18.5t-18 45.5v567q0 27 18 45l127 127q14 18 43 19h506q27 0 45 -19l127 -127q18 -23 19 -45v-61q0 -29 -19 -43l-739 -742v-12l88 -88h453l90 88v543q0 27 18.5 45t44.5 18 q27 0 45.5 -18.5t18.5 -44.5v-570q0 -25 -19 -43l-127 -127q-18 -18 -45 -18h-506q-29 0 -43 18l-127 127q-18 14 -18 43z" />
<glyph unicode="1" horiz-adv-x="581" d="M0 63q0 27 18.5 45.5t44.5 18.5h95v1010h-95q-27 0 -45 18.5t-18 44.5q0 27 18.5 45.5t44.5 18.5h158q27 0 45.5 -18.5t18.5 -45.5v-1073h94q27 0 45 -18.5t18 -45.5t-18 -45t-45 -18h-158h-158q-27 0 -45 18.5t-18 44.5z" />
<glyph unicode="2" d="M0 63v125q0 29 18 45l740 740v74l-90 90h-453l-88 -90v-37q0 -27 -18.5 -44.5t-45.5 -17.5t-45 17.5t-18 44.5v63q0 27 18 45l127 127q14 18 43 19h506q27 0 45 -19l127 -127q18 -23 19 -45v-125q0 -25 -19 -45l-739 -739v-37h541l90 88v37q0 27 18.5 45t44.5 18 q27 0 45.5 -18t18.5 -45v-64q0 -25 -19 -43l-127 -127q-18 -18 -45 -18h-631q-27 0 -45 18t-18 45z" />
<glyph unicode="3" horiz-adv-x="1026" d="M0 188v64q0 27 18.5 45t44.5 18q27 0 45.5 -18t18.5 -45v-37l88 -88h453l90 88v262l-90 90h-254q-27 0 -45.5 18.5t-18.5 45.5t18.5 45t45.5 18h280q27 0 45 -18l127 -127q18 -23 19 -45v-316q0 -25 -19 -43l-127 -127q-18 -18 -45 -18h-506q-29 0 -43 18l-127 127 q-18 14 -18 43zM0 995v205q0 27 18.5 45.5t44.5 18.5h758q27 0 45.5 -18.5t18.5 -45.5v-301q0 -25 -19 -43l-104 -104q-18 -18 -45 -18.5t-45 18.5q-18 18 -18.5 43.5t18.5 44.5l86 86v211h-631v-142q0 -27 -18.5 -45t-45.5 -18t-45 18.5t-18 44.5z" />
<glyph unicode="4" d="M0 600v600q0 27 18.5 45.5t44.5 18.5q27 0 45.5 -18.5t18.5 -45.5v-573l88 -90h416q27 0 45 -18.5t18 -45.5t-18.5 -45t-44.5 -18h-443q-25 0 -43 18l-127 127q-18 18 -18 45zM758 63v1137q0 27 18.5 45.5t44.5 18.5q27 0 45.5 -18.5t18.5 -45.5v-1137q0 -27 -18.5 -45 t-45.5 -18t-45 18.5t-18 44.5z" />
<glyph unicode="5" d="M0 188v64q0 27 18.5 45t44.5 18q27 0 45.5 -18t18.5 -45v-37l88 -88h453l90 88v422l-90 90h-510q-27 0 -45 18l-95 95q-18 18 -18 45v315q0 27 18.5 45.5t44.5 18.5h758q27 0 45.5 -18.5t18.5 -45.5t-18.5 -45t-45.5 -18h-694v-226l57 -59h510q27 0 45 -18l127 -125 q18 -23 19 -45v-476q0 -25 -19 -43l-127 -127q-18 -18 -45 -18h-506q-29 0 -43 18l-127 127q-18 14 -18 43z" />
<glyph unicode="6" d="M0 188v885q0 27 18 45l127 127q14 18 43 19h506q27 0 45 -19l127 -127q18 -23 19 -45v-94q0 -27 -18.5 -45.5t-45.5 -18.5t-45 18.5t-18 45.5v68l-90 90h-453l-88 -90v-832l88 -88h453l90 88v422l-90 90h-416q-27 0 -45.5 17.5t-18.5 43.5q0 29 18.5 46.5t45.5 17.5h442 q27 0 45 -18l127 -125q18 -23 19 -45v-476q0 -25 -19 -43l-127 -127q-18 -18 -45 -18h-506q-29 0 -43 18l-127 127q-18 14 -18 43z" />
<glyph unicode="7" d="M0 995v205q0 27 18.5 45.5t44.5 18.5h758q27 0 45.5 -18.5t18.5 -45.5v-301q0 -25 -19 -43l-360 -360v-433q0 -27 -18.5 -45t-45.5 -18t-45 18.5t-18 44.5v457q0 27 18 45l361 361v211h-631v-142q0 -27 -18.5 -45t-45.5 -18t-45 18.5t-18 44.5z" />
<glyph unicode="8" d="M0 188v318q0 27 18 45l127 125q14 18 43 18h480l90 90v263l-90 90h-453l-88 -90v-289q0 -27 -18.5 -45.5t-45.5 -18.5t-45 18.5t-18 45.5v315q0 27 18 45l127 127q14 18 43 19h506q27 0 45 -19l127 -127q18 -23 19 -45v-315q0 -25 -19 -45l-127 -125q-18 -18 -45 -19 h-479l-88 -90v-264l88 -88h453l90 88v291q0 27 18.5 45t44.5 18q27 0 45.5 -18.5t18.5 -44.5v-318q0 -25 -19 -43l-127 -127q-18 -18 -45 -18h-506q-29 0 -43 18l-127 127q-18 14 -18 43z" />
<glyph unicode="9" d="M0 188v97q0 27 18.5 45t44.5 18q27 0 45.5 -18.5t18.5 -44.5v-70l88 -88h453l90 88v832l-90 90h-453l-88 -90v-420l88 -90h416q27 0 45 -18.5t18 -45.5t-18.5 -45t-44.5 -18h-443q-25 0 -43 18l-127 127q-18 18 -18 45v473q0 27 18 45l127 127q14 18 43 19h506 q27 0 45 -19l127 -127q18 -23 19 -45v-885q0 -25 -19 -43l-127 -127q-18 -18 -45 -18h-506q-29 0 -43 18l-127 127q-18 14 -18 43z" />
<glyph unicode="A" d="M0 63v222q0 27 18.5 45t44.5 18q27 0 45.5 -18.5t18.5 -44.5v-222q0 -27 -18.5 -45t-45.5 -18t-45 18.5t-18 44.5zM0 473v600q0 27 18 45l127 127q14 18 43 19h506q27 0 45 -19l127 -127q18 -23 19 -45v-409q0 -27 -18.5 -45.5t-45.5 -18.5t-45 18.5t-18 45.5v383l-90 90 h-453l-88 -90v-510h694q27 0 45.5 -18.5t18.5 -45.5v-188v-222q0 -27 -18.5 -45t-45.5 -18t-45 18.5t-18 44.5v347h-695q-25 0 -45 18q-18 18 -18 45z" />
<glyph unicode="B" d="M0 63v947q0 27 18.5 45t44.5 18q27 0 45.5 -18.5t18.5 -44.5v-316h479l88 90v263l-88 90h-543q-27 0 -45 18.5t-18 44.5q0 27 18.5 45.5t44.5 18.5h568q27 0 45 -19l127 -127q18 -18 18 -45v-315q0 -27 -18 -45l-51 -49l114 -113q18 -23 19 -45v-318q0 -25 -19 -43 l-127 -127q-18 -18 -45 -18h-442q-27 0 -45.5 18.5t-18.5 44.5q0 27 18.5 45.5t45.5 18.5h416l90 88v264l-90 90h-37h-504v-506q0 -27 -18.5 -45t-45.5 -18t-45 18.5t-18 44.5z" />
<glyph unicode="C" horiz-adv-x="1021" d="M0 188v885q0 27 18 45l127 127q14 18 43 19h160q27 0 44.5 -18.5t17.5 -45.5t-17.5 -45t-44.5 -18h-133l-88 -90v-832l88 -88h133q27 0 44.5 -18.5t17.5 -45.5t-17.5 -45t-44.5 -18h-160q-29 0 -43 18l-127 127q-18 14 -18 43zM473 63q0 27 18.5 45.5t45.5 18.5h131 l90 88v37q0 27 18.5 45t44.5 18q27 0 45.5 -18t18.5 -45v-64q0 -25 -19 -43l-127 -127q-18 -18 -45 -18h-157q-27 0 -45.5 18.5t-18.5 44.5zM473 1200q0 27 18.5 45.5t45.5 18.5h157q27 0 45 -19l127 -127q18 -23 19 -45v-63q0 -27 -18.5 -44.5t-45.5 -17.5t-45 17.5 t-18 44.5v37l-90 90h-131q-27 0 -45.5 18.5t-18.5 44.5z" />
<glyph unicode="D" d="M0 63v947q0 27 18.5 45t44.5 18q27 0 45.5 -18.5t18.5 -44.5v-883h541l90 88v832l-90 90h-605q-27 0 -45 18.5t-18 44.5q0 27 18.5 45.5t44.5 18.5h631q27 0 45 -19l127 -127q18 -23 19 -45v-885q0 -25 -19 -43l-127 -127q-18 -18 -45 -18h-631q-27 0 -45 18.5t-18 44.5z " />
<glyph unicode="E" d="M0 188v254q0 27 18.5 45.5t44.5 18.5q27 0 45.5 -18.5t18.5 -45.5v-227l88 -88h606q27 0 45.5 -18.5t18.5 -45.5t-18.5 -45t-45.5 -18h-633q-29 0 -43 18l-127 127q-18 14 -18 43zM0 631v442q0 27 18 45l127 127q14 18 43 19h633q27 0 45.5 -18.5t18.5 -45.5t-18.5 -45 t-45.5 -18h-606l-88 -90v-353h567q27 0 45.5 -18.5t18.5 -44.5q0 -27 -18.5 -44.5t-45.5 -17.5h-631q-27 0 -45 17.5t-18 44.5z" />
<glyph unicode="F" horiz-adv-x="1026" d="M0 63v379q0 27 18.5 45.5t44.5 18.5q27 0 45.5 -18.5t18.5 -45.5v-379q0 -27 -18.5 -45t-45.5 -18t-45 18.5t-18 44.5zM0 631v442q0 27 18 45l127 127q14 18 43 19h633q27 0 45.5 -18.5t18.5 -45.5t-18.5 -45t-45.5 -18h-606l-88 -90v-353h567q27 0 45.5 -18.5 t18.5 -44.5q0 -27 -18.5 -44.5t-45.5 -17.5h-631q-27 0 -45 17.5t-18 44.5z" />
<glyph unicode="G" d="M0 188v885q0 27 18 45l127 127q14 18 43 19h160q27 0 44.5 -18.5t17.5 -45.5t-17.5 -45t-44.5 -18h-133l-88 -90v-832l88 -88h133q27 0 44.5 -18.5t17.5 -45.5t-17.5 -45t-44.5 -18h-160q-29 0 -43 18l-127 127q-18 14 -18 43zM442 631q0 27 18.5 45t45.5 18h315 q27 0 45.5 -18.5t18.5 -44.5v-443q0 -25 -19 -43l-127 -127q-18 -18 -45 -18h-157q-27 0 -45.5 18.5t-18.5 44.5q0 27 18.5 45.5t45.5 18.5h131l90 88v354h-252q-27 0 -45.5 17.5t-18.5 44.5zM473 1200q0 27 18.5 45.5t45.5 18.5h157q27 0 45 -19l127 -127q18 -23 19 -45 v-63q0 -27 -18.5 -44.5t-45.5 -17.5t-45 17.5t-18 44.5v37l-90 90h-131q-27 0 -45.5 18.5t-18.5 44.5z" />
<glyph unicode="H" d="M0 63v379q0 27 18.5 45.5t44.5 18.5q27 0 45.5 -18.5t18.5 -45.5v-379q0 -27 -18.5 -45t-45.5 -18t-45 18.5t-18 44.5zM0 631v569q0 27 18.5 45.5t44.5 18.5q27 0 45.5 -18.5t18.5 -45.5v-506h694q20 0 39 -12q25 -23 25 -51v-568q0 -27 -18.5 -45t-45.5 -18t-45 18.5 t-18 44.5v506h-695q-27 0 -45 17.5t-18 44.5zM758 821v379q0 27 18.5 45.5t44.5 18.5q27 0 45.5 -18.5t18.5 -45.5v-379q0 -27 -18.5 -45t-45.5 -18t-45 18.5t-18 44.5z" />
<glyph unicode="I" horiz-adv-x="581" d="M0 63q0 27 18.5 45.5t44.5 18.5h95v1010h-95q-27 0 -45 18.5t-18 44.5q0 27 18.5 45.5t44.5 18.5h316q27 0 45 -18.5t18 -45.5t-18 -45t-45 -18h-94v-1010h94q27 0 45 -18.5t18 -45.5t-18 -45t-45 -18h-316q-27 0 -45 18.5t-18 44.5z" />
<glyph unicode="J" d="M0 188v64q0 27 18.5 45t44.5 18q27 0 45.5 -18t18.5 -45v-37l88 -88h453l90 88v922h-252q-27 0 -45.5 18.5t-18.5 44.5q0 27 18.5 45.5t45.5 18.5h315q27 0 45.5 -18.5t18.5 -45.5v-1012q0 -25 -19 -43l-127 -127q-18 -18 -45 -18h-506q-29 0 -43 18l-127 127 q-18 14 -18 43z" />
<glyph unicode="K" horiz-adv-x="1026" d="M0 63v568q0 27 18 45t45 18h164l549 551q18 18 45 18.5t45 -18.5q18 -18 18.5 -44.5t-18.5 -45.5l-569 -567q-18 -18 -45 -19h-125v-506q0 -27 -18.5 -45t-45.5 -18t-45 18.5t-18 44.5zM0 821v379q0 27 18.5 45.5t44.5 18.5q27 0 45.5 -18.5t18.5 -45.5v-379 q0 -27 -18.5 -45t-45.5 -18t-45 18.5t-18 44.5zM315.5 504.5q-0.5 25.5 18.5 46.5q18 18 45 18t45 -18l442 -442q18 -18 18.5 -45t-18.5 -46q-18 -18 -45 -18t-45 18l-442 443q-18 18 -18.5 43.5z" />
<glyph unicode="L" d="M0 188v1012q0 27 18.5 45.5t44.5 18.5q27 0 45.5 -18.5t18.5 -45.5v-985l88 -88h453l90 88v37q0 27 18.5 45t44.5 18q27 0 45.5 -18t18.5 -45v-64q0 -25 -19 -43l-127 -127q-18 -18 -45 -18h-506q-29 0 -43 18l-127 127q-18 14 -18 43z" />
<glyph unicode="M" horiz-adv-x="1466" d="M0 63v758q0 27 18.5 45.5t44.5 18.5q27 0 45.5 -18.5t18.5 -45.5v-758q0 -27 -18.5 -45t-45.5 -18t-45 18.5t-18 44.5zM0 1010v190q0 18 10 34.5t29 22.5q15 6 28 6q23 0 42 -18l555 -555l555 555q18 18 41 18q13 0 28 -6q16 -6 27.5 -22t11.5 -35v-190 q0 -27 -18.5 -44.5t-44.5 -17.5q-27 0 -45.5 17.5t-18.5 44.5v37l-473 -474v-510q0 -27 -18.5 -45t-44.5 -18q-27 0 -45.5 18.5t-18.5 44.5v510l-473 474v-37q0 -27 -18.5 -44.5t-45.5 -17.5t-45 17.5t-18 44.5zM1200 63v758q0 27 18.5 45.5t45.5 18.5t45 -18.5t18 -45.5 v-758q0 -27 -18.5 -45t-44.5 -18q-27 0 -45.5 18.5t-18.5 44.5z" />
<glyph unicode="N" d="M0 63v1137q0 18 10 34.5t29 22.5q15 6 28 6q23 0 42 -18l757 -758q18 -23 19 -45v-379q0 -27 -18.5 -45t-45.5 -18t-45 18.5t-18 44.5v353l-631 631v-984q0 -27 -18.5 -45t-45.5 -18t-45 18.5t-18 44.5zM758 694v506q0 27 18.5 45.5t44.5 18.5q27 0 45.5 -18.5 t18.5 -45.5v-506q0 -27 -18.5 -45t-45.5 -18t-45 18.5t-18 44.5z" />
<glyph unicode="O" d="M0 188v885q0 27 18 45l127 127q14 18 43 19h160q27 0 44.5 -18.5t17.5 -45.5t-17.5 -45t-44.5 -18h-133l-88 -90v-832l88 -88h133q27 0 44.5 -18.5t17.5 -45.5t-17.5 -45t-44.5 -18h-160q-29 0 -43 18l-127 127q-18 14 -18 43zM473 63q0 27 18.5 45.5t45.5 18.5h131 l90 88v832l-90 90h-131q-27 0 -45.5 18.5t-18.5 44.5q0 27 18.5 45.5t45.5 18.5h157q27 0 45 -19l127 -127q18 -23 19 -45v-885q0 -25 -19 -43l-127 -127q-18 -18 -45 -18h-157q-27 0 -45.5 18.5t-18.5 44.5z" />
<glyph unicode="P" d="M0 63v947q0 27 18.5 45t44.5 18q27 0 45.5 -18.5t18.5 -44.5v-947q0 -27 -18.5 -45t-45.5 -18t-45 18.5t-18 44.5zM0 1200q0 27 18.5 45.5t44.5 18.5h631q27 0 45 -19l127 -127q18 -23 19 -45v-473q0 -25 -19 -45l-127 -127q-23 -18 -45 -18h-442q-27 0 -45.5 18 t-18.5 45t18.5 45.5t45.5 18.5h416l90 90v420l-90 90h-605q-27 0 -45 18.5t-18 44.5z" />
<glyph unicode="Q" d="M0 188v633q0 18 10 34.5t29 23.5q15 6 28 6q23 0 42 -19l757 -757q18 -18 18.5 -45t-18.5 -46q-18 -18 -45 -18t-45 18l-649 650v-453l88 -88h354q27 0 44.5 -18.5t17.5 -45.5t-17.5 -45t-44.5 -18h-381q-29 0 -43 18l-127 127q-18 14 -18 43zM0 1010v63q0 27 18 45 l127 127q14 18 43 19h506q27 0 45 -19l127 -127q18 -23 19 -45v-758q0 -27 -18.5 -45t-45.5 -18t-45 18.5t-18 44.5v732l-90 90h-453l-88 -90v-37q0 -27 -18.5 -44.5t-45.5 -17.5t-45 17.5t-18 44.5z" />
<glyph unicode="R" d="M0 63v947q0 27 18.5 45t44.5 18q27 0 45.5 -18.5t18.5 -44.5v-947q0 -27 -18.5 -45t-45.5 -18t-45 18.5t-18 44.5zM0 1200q0 27 18.5 45.5t44.5 18.5h631q27 0 45 -19l127 -127q18 -23 19 -45v-473q0 -25 -19 -45l-127 -127q-23 -18 -45 -18h-131l303 -301 q18 -18 18.5 -45t-18.5 -46q-18 -18 -45 -18t-45 18l-391 392h-133q-27 0 -45.5 18t-18.5 45t18.5 45.5t45.5 18.5h416l90 90v420l-90 90h-605q-27 0 -45 18.5t-18 44.5z" />
<glyph unicode="S" d="M0 188v64q0 27 18.5 45t44.5 18q27 0 45.5 -18t18.5 -45v-37l88 -88h133q27 0 44.5 -18.5t17.5 -45.5t-17.5 -45t-44.5 -18h-160q-29 0 -43 18l-127 127q-18 14 -18 43zM0 788v285q0 27 18 45l127 127q14 18 43 19h160q27 0 44.5 -18.5t17.5 -45.5t-17.5 -45t-44.5 -18 h-133l-88 -90v-216l719 -299q16 -8 27.5 -23t11.5 -36v-285q0 -25 -19 -43l-127 -127q-18 -18 -45 -18h-157q-27 0 -45.5 18.5t-18.5 44.5q0 27 18.5 45.5t45.5 18.5h131l90 88v217l-719 299q-39 14 -39 57zM473 1200q0 27 18.5 45.5t45.5 18.5h157q27 0 45 -19l127 -127 q18 -23 19 -45v-63q0 -27 -18.5 -44.5t-45.5 -17.5t-45 17.5t-18 44.5v37l-90 90h-131q-27 0 -45.5 18.5t-18.5 44.5z" />
<glyph unicode="T" d="M0 1200q0 27 18.5 45.5t44.5 18.5h189h190q27 0 45.5 -18.5t18.5 -45.5v-1137q0 -27 -18.5 -45t-45.5 -18t-45 18.5t-18 44.5v1074h-316q-27 0 -45 18.5t-18 44.5zM569 1200q0 27 17.5 45.5t44.5 18.5h190q27 0 45.5 -18.5t18.5 -45.5t-18.5 -45t-45.5 -18h-190 q-27 0 -44.5 18.5t-17.5 44.5z" />
<glyph unicode="U" d="M0 188v1012q0 27 18.5 45.5t44.5 18.5q27 0 45.5 -18.5t18.5 -45.5v-985l88 -88h453l90 88v985q0 27 18.5 45.5t44.5 18.5q27 0 45.5 -18.5t18.5 -45.5v-1012q0 -25 -19 -43l-127 -127q-18 -18 -45 -18h-506q-29 0 -43 18l-127 127q-18 14 -18 43z" />
<glyph unicode="V" d="M0 379v821q0 27 18.5 45.5t44.5 18.5q27 0 45.5 -18.5t18.5 -45.5v-794l279 -279h73l279 279v794q0 27 18.5 45.5t44.5 18.5q27 0 45.5 -18.5t18.5 -45.5v-821q0 -25 -19 -45l-315 -316q-18 -18 -45 -18h-127q-27 0 -45 18l-316 316q-18 18 -18 45z" />
<glyph unicode="W" horiz-adv-x="1466" d="M0 188v64q0 27 18.5 45t44.5 18q27 0 45.5 -18t18.5 -45v-37l88 -88h295l90 88v23v962q0 27 18.5 45.5t45.5 18.5t45 -18.5t18 -45.5v-948v-37l88 -88h295l90 88v37q0 27 18.5 45t45.5 18t45 -18t18 -45v-64q0 -25 -18 -43l-127 -127q-18 -18 -45 -18h-349q-29 0 -43 18 l-81 82l-82 -82q-18 -18 -45 -18h-349q-29 0 -43 18l-127 127q-18 14 -18 43zM0 442v758q0 27 18.5 45.5t44.5 18.5q27 0 45.5 -18.5t18.5 -45.5v-758q0 -27 -18.5 -45t-45.5 -18t-45 18.5t-18 44.5zM1200 442v758q0 27 18.5 45.5t45.5 18.5t45 -18.5t18 -45.5v-758 q0 -27 -18.5 -45t-44.5 -18q-27 0 -45.5 18.5t-18.5 44.5z" />
<glyph unicode="X" horiz-adv-x="1026" d="M0 63v189q0 27 18 45l252 254q18 18 45 18t45 -18q18 -20 18.5 -46t-18.5 -44l-233 -234v-164q0 -27 -18.5 -45t-45.5 -18t-45 18.5t-18 44.5zM0 1010v190q0 27 18.5 45.5t44.5 18.5q27 0 45.5 -18.5t18.5 -45.5v-164l739 -739q18 -23 19 -45v-189q0 -27 -18.5 -45 t-45.5 -18t-45 18.5t-18 44.5v164l-740 740q-18 14 -18 43zM506 757.5q0 26.5 18 45.5l234 233v164q0 27 18.5 45.5t44.5 18.5q27 0 45.5 -18.5t18.5 -45.5v-190q0 -25 -19 -43l-254 -254q-18 -18 -43 -19q-27 0 -45 19q-18 18 -18 44.5z" />
<glyph unicode="Y" d="M0 188v64q0 27 18.5 45t44.5 18q27 0 45.5 -18t18.5 -45v-37l88 -88h453l90 88v985q0 27 18.5 45.5t44.5 18.5q27 0 45.5 -18.5t18.5 -45.5v-1012q0 -25 -19 -43l-127 -127q-18 -18 -45 -18h-506q-29 0 -43 18l-127 127q-18 14 -18 43zM0 600v600q0 27 18.5 45.5 t44.5 18.5q27 0 45.5 -18.5t18.5 -45.5v-573l88 -90h416q27 0 45 -18.5t18 -45.5t-18.5 -45t-44.5 -18h-443q-25 0 -43 18l-127 127q-18 18 -18 45z" />
<glyph unicode="Z" d="M0 1200q0 27 18.5 45.5t44.5 18.5h285q27 0 44.5 -18.5t17.5 -45.5t-17.5 -45t-44.5 -18h-285q-27 0 -45 18.5t-18 44.5zM8 33q-9 16 -9 31q0 17 11 34l692 1039h-165q-27 0 -45.5 18.5t-18.5 44.5q0 27 18.5 45.5t45.5 18.5h284q39 0 56 -35q7 -17 7 -32q0 -18 -10 -32 l-694 -1038h168q27 0 44.5 -18.5t17.5 -45.5t-17.5 -45t-44.5 -18h-285q-41 0 -55 33zM473 63q0 27 18.5 45.5t45.5 18.5h284q27 0 45.5 -18.5t18.5 -45.5t-18.5 -45t-45.5 -18h-284q-27 0 -45.5 18.5t-18.5 44.5z" />
<glyph unicode="a" d="M0 63v222q0 27 18.5 45t44.5 18q27 0 45.5 -18.5t18.5 -44.5v-222q0 -27 -18.5 -45t-45.5 -18t-45 18.5t-18 44.5zM0 473v600q0 27 18 45l127 127q14 18 43 19h506q27 0 45 -19l127 -127q18 -23 19 -45v-409q0 -27 -18.5 -45.5t-45.5 -18.5t-45 18.5t-18 45.5v383l-90 90 h-453l-88 -90v-510h694q27 0 45.5 -18.5t18.5 -45.5v-188v-222q0 -27 -18.5 -45t-45.5 -18t-45 18.5t-18 44.5v347h-695q-25 0 -45 18q-18 18 -18 45z" />
<glyph unicode="b" d="M0 63v947q0 27 18.5 45t44.5 18q27 0 45.5 -18.5t18.5 -44.5v-316h479l88 90v263l-88 90h-543q-27 0 -45 18.5t-18 44.5q0 27 18.5 45.5t44.5 18.5h568q27 0 45 -19l127 -127q18 -18 18 -45v-315q0 -27 -18 -45l-51 -49l114 -113q18 -23 19 -45v-318q0 -25 -19 -43 l-127 -127q-18 -18 -45 -18h-442q-27 0 -45.5 18.5t-18.5 44.5q0 27 18.5 45.5t45.5 18.5h416l90 88v264l-90 90h-37h-504v-506q0 -27 -18.5 -45t-45.5 -18t-45 18.5t-18 44.5z" />
<glyph unicode="c" horiz-adv-x="1021" d="M0 188v885q0 27 18 45l127 127q14 18 43 19h160q27 0 44.5 -18.5t17.5 -45.5t-17.5 -45t-44.5 -18h-133l-88 -90v-832l88 -88h133q27 0 44.5 -18.5t17.5 -45.5t-17.5 -45t-44.5 -18h-160q-29 0 -43 18l-127 127q-18 14 -18 43zM473 63q0 27 18.5 45.5t45.5 18.5h131 l90 88v37q0 27 18.5 45t44.5 18q27 0 45.5 -18t18.5 -45v-64q0 -25 -19 -43l-127 -127q-18 -18 -45 -18h-157q-27 0 -45.5 18.5t-18.5 44.5zM473 1200q0 27 18.5 45.5t45.5 18.5h157q27 0 45 -19l127 -127q18 -23 19 -45v-63q0 -27 -18.5 -44.5t-45.5 -17.5t-45 17.5 t-18 44.5v37l-90 90h-131q-27 0 -45.5 18.5t-18.5 44.5z" />
<glyph unicode="d" d="M0 63v947q0 27 18.5 45t44.5 18q27 0 45.5 -18.5t18.5 -44.5v-883h541l90 88v832l-90 90h-605q-27 0 -45 18.5t-18 44.5q0 27 18.5 45.5t44.5 18.5h631q27 0 45 -19l127 -127q18 -23 19 -45v-885q0 -25 -19 -43l-127 -127q-18 -18 -45 -18h-631q-27 0 -45 18.5t-18 44.5z " />
<glyph unicode="e" d="M0 188v254q0 27 18.5 45.5t44.5 18.5q27 0 45.5 -18.5t18.5 -45.5v-227l88 -88h606q27 0 45.5 -18.5t18.5 -45.5t-18.5 -45t-45.5 -18h-633q-29 0 -43 18l-127 127q-18 14 -18 43zM0 631v442q0 27 18 45l127 127q14 18 43 19h633q27 0 45.5 -18.5t18.5 -45.5t-18.5 -45 t-45.5 -18h-606l-88 -90v-353h567q27 0 45.5 -18.5t18.5 -44.5q0 -27 -18.5 -44.5t-45.5 -17.5h-631q-27 0 -45 17.5t-18 44.5z" />
<glyph unicode="f" horiz-adv-x="1026" d="M0 63v379q0 27 18.5 45.5t44.5 18.5q27 0 45.5 -18.5t18.5 -45.5v-379q0 -27 -18.5 -45t-45.5 -18t-45 18.5t-18 44.5zM0 631v442q0 27 18 45l127 127q14 18 43 19h633q27 0 45.5 -18.5t18.5 -45.5t-18.5 -45t-45.5 -18h-606l-88 -90v-353h567q27 0 45.5 -18.5 t18.5 -44.5q0 -27 -18.5 -44.5t-45.5 -17.5h-631q-27 0 -45 17.5t-18 44.5z" />
<glyph unicode="g" d="M0 188v885q0 27 18 45l127 127q14 18 43 19h160q27 0 44.5 -18.5t17.5 -45.5t-17.5 -45t-44.5 -18h-133l-88 -90v-832l88 -88h133q27 0 44.5 -18.5t17.5 -45.5t-17.5 -45t-44.5 -18h-160q-29 0 -43 18l-127 127q-18 14 -18 43zM442 631q0 27 18.5 45t45.5 18h315 q27 0 45.5 -18.5t18.5 -44.5v-443q0 -25 -19 -43l-127 -127q-18 -18 -45 -18h-157q-27 0 -45.5 18.5t-18.5 44.5q0 27 18.5 45.5t45.5 18.5h131l90 88v354h-252q-27 0 -45.5 17.5t-18.5 44.5zM473 1200q0 27 18.5 45.5t45.5 18.5h157q27 0 45 -19l127 -127q18 -23 19 -45 v-63q0 -27 -18.5 -44.5t-45.5 -17.5t-45 17.5t-18 44.5v37l-90 90h-131q-27 0 -45.5 18.5t-18.5 44.5z" />
<glyph unicode="h" d="M0 63v379q0 27 18.5 45.5t44.5 18.5q27 0 45.5 -18.5t18.5 -45.5v-379q0 -27 -18.5 -45t-45.5 -18t-45 18.5t-18 44.5zM0 631v569q0 27 18.5 45.5t44.5 18.5q27 0 45.5 -18.5t18.5 -45.5v-506h694q20 0 39 -12q25 -23 25 -51v-568q0 -27 -18.5 -45t-45.5 -18t-45 18.5 t-18 44.5v506h-695q-27 0 -45 17.5t-18 44.5zM758 821v379q0 27 18.5 45.5t44.5 18.5q27 0 45.5 -18.5t18.5 -45.5v-379q0 -27 -18.5 -45t-45.5 -18t-45 18.5t-18 44.5z" />
<glyph unicode="i" horiz-adv-x="581" d="M0 63q0 27 18.5 45.5t44.5 18.5h95v1010h-95q-27 0 -45 18.5t-18 44.5q0 27 18.5 45.5t44.5 18.5h316q27 0 45 -18.5t18 -45.5t-18 -45t-45 -18h-94v-1010h94q27 0 45 -18.5t18 -45.5t-18 -45t-45 -18h-316q-27 0 -45 18.5t-18 44.5z" />
<glyph unicode="j" d="M0 188v64q0 27 18.5 45t44.5 18q27 0 45.5 -18t18.5 -45v-37l88 -88h453l90 88v922h-252q-27 0 -45.5 18.5t-18.5 44.5q0 27 18.5 45.5t45.5 18.5h315q27 0 45.5 -18.5t18.5 -45.5v-1012q0 -25 -19 -43l-127 -127q-18 -18 -45 -18h-506q-29 0 -43 18l-127 127 q-18 14 -18 43z" />
<glyph unicode="k" horiz-adv-x="1026" d="M0 63v568q0 27 18 45t45 18h164l549 551q18 18 45 18.5t45 -18.5q18 -18 18.5 -44.5t-18.5 -45.5l-569 -567q-18 -18 -45 -19h-125v-506q0 -27 -18.5 -45t-45.5 -18t-45 18.5t-18 44.5zM0 821v379q0 27 18.5 45.5t44.5 18.5q27 0 45.5 -18.5t18.5 -45.5v-379 q0 -27 -18.5 -45t-45.5 -18t-45 18.5t-18 44.5zM315.5 504.5q-0.5 25.5 18.5 46.5q18 18 45 18t45 -18l442 -442q18 -18 18.5 -45t-18.5 -46q-18 -18 -45 -18t-45 18l-442 443q-18 18 -18.5 43.5z" />
<glyph unicode="l" d="M0 188v1012q0 27 18.5 45.5t44.5 18.5q27 0 45.5 -18.5t18.5 -45.5v-985l88 -88h453l90 88v37q0 27 18.5 45t44.5 18q27 0 45.5 -18t18.5 -45v-64q0 -25 -19 -43l-127 -127q-18 -18 -45 -18h-506q-29 0 -43 18l-127 127q-18 14 -18 43z" />
<glyph unicode="m" horiz-adv-x="1466" d="M0 63v758q0 27 18.5 45.5t44.5 18.5q27 0 45.5 -18.5t18.5 -45.5v-758q0 -27 -18.5 -45t-45.5 -18t-45 18.5t-18 44.5zM0 1010v190q0 18 10 34.5t29 22.5q15 6 28 6q23 0 42 -18l555 -555l555 555q18 18 41 18q13 0 28 -6q16 -6 27.5 -22t11.5 -35v-190 q0 -27 -18.5 -44.5t-44.5 -17.5q-27 0 -45.5 17.5t-18.5 44.5v37l-473 -474v-510q0 -27 -18.5 -45t-44.5 -18q-27 0 -45.5 18.5t-18.5 44.5v510l-473 474v-37q0 -27 -18.5 -44.5t-45.5 -17.5t-45 17.5t-18 44.5zM1200 63v758q0 27 18.5 45.5t45.5 18.5t45 -18.5t18 -45.5 v-758q0 -27 -18.5 -45t-44.5 -18q-27 0 -45.5 18.5t-18.5 44.5z" />
<glyph unicode="n" d="M0 63v1137q0 18 10 34.5t29 22.5q15 6 28 6q23 0 42 -18l757 -758q18 -23 19 -45v-379q0 -27 -18.5 -45t-45.5 -18t-45 18.5t-18 44.5v353l-631 631v-984q0 -27 -18.5 -45t-45.5 -18t-45 18.5t-18 44.5zM758 694v506q0 27 18.5 45.5t44.5 18.5q27 0 45.5 -18.5 t18.5 -45.5v-506q0 -27 -18.5 -45t-45.5 -18t-45 18.5t-18 44.5z" />
<glyph unicode="o" d="M0 188v885q0 27 18 45l127 127q14 18 43 19h160q27 0 44.5 -18.5t17.5 -45.5t-17.5 -45t-44.5 -18h-133l-88 -90v-832l88 -88h133q27 0 44.5 -18.5t17.5 -45.5t-17.5 -45t-44.5 -18h-160q-29 0 -43 18l-127 127q-18 14 -18 43zM473 63q0 27 18.5 45.5t45.5 18.5h131 l90 88v832l-90 90h-131q-27 0 -45.5 18.5t-18.5 44.5q0 27 18.5 45.5t45.5 18.5h157q27 0 45 -19l127 -127q18 -23 19 -45v-885q0 -25 -19 -43l-127 -127q-18 -18 -45 -18h-157q-27 0 -45.5 18.5t-18.5 44.5z" />
<glyph unicode="p" d="M0 63v947q0 27 18.5 45t44.5 18q27 0 45.5 -18.5t18.5 -44.5v-947q0 -27 -18.5 -45t-45.5 -18t-45 18.5t-18 44.5zM0 1200q0 27 18.5 45.5t44.5 18.5h631q27 0 45 -19l127 -127q18 -23 19 -45v-473q0 -25 -19 -45l-127 -127q-23 -18 -45 -18h-442q-27 0 -45.5 18 t-18.5 45t18.5 45.5t45.5 18.5h416l90 90v420l-90 90h-605q-27 0 -45 18.5t-18 44.5z" />
<glyph unicode="q" d="M0 188v633q0 18 10 34.5t29 23.5q15 6 28 6q23 0 42 -19l757 -757q18 -18 18.5 -45t-18.5 -46q-18 -18 -45 -18t-45 18l-649 650v-453l88 -88h354q27 0 44.5 -18.5t17.5 -45.5t-17.5 -45t-44.5 -18h-381q-29 0 -43 18l-127 127q-18 14 -18 43zM0 1010v63q0 27 18 45 l127 127q14 18 43 19h506q27 0 45 -19l127 -127q18 -23 19 -45v-758q0 -27 -18.5 -45t-45.5 -18t-45 18.5t-18 44.5v732l-90 90h-453l-88 -90v-37q0 -27 -18.5 -44.5t-45.5 -17.5t-45 17.5t-18 44.5z" />
<glyph unicode="r" d="M0 63v947q0 27 18.5 45t44.5 18q27 0 45.5 -18.5t18.5 -44.5v-947q0 -27 -18.5 -45t-45.5 -18t-45 18.5t-18 44.5zM0 1200q0 27 18.5 45.5t44.5 18.5h631q27 0 45 -19l127 -127q18 -23 19 -45v-473q0 -25 -19 -45l-127 -127q-23 -18 -45 -18h-131l303 -301 q18 -18 18.5 -45t-18.5 -46q-18 -18 -45 -18t-45 18l-391 392h-133q-27 0 -45.5 18t-18.5 45t18.5 45.5t45.5 18.5h416l90 90v420l-90 90h-605q-27 0 -45 18.5t-18 44.5z" />
<glyph unicode="s" d="M0 188v64q0 27 18.5 45t44.5 18q27 0 45.5 -18t18.5 -45v-37l88 -88h133q27 0 44.5 -18.5t17.5 -45.5t-17.5 -45t-44.5 -18h-160q-29 0 -43 18l-127 127q-18 14 -18 43zM0 788v285q0 27 18 45l127 127q14 18 43 19h160q27 0 44.5 -18.5t17.5 -45.5t-17.5 -45t-44.5 -18 h-133l-88 -90v-216l719 -299q16 -8 27.5 -23t11.5 -36v-285q0 -25 -19 -43l-127 -127q-18 -18 -45 -18h-157q-27 0 -45.5 18.5t-18.5 44.5q0 27 18.5 45.5t45.5 18.5h131l90 88v217l-719 299q-39 14 -39 57zM473 1200q0 27 18.5 45.5t45.5 18.5h157q27 0 45 -19l127 -127 q18 -23 19 -45v-63q0 -27 -18.5 -44.5t-45.5 -17.5t-45 17.5t-18 44.5v37l-90 90h-131q-27 0 -45.5 18.5t-18.5 44.5z" />
<glyph unicode="t" d="M0 1200q0 27 18.5 45.5t44.5 18.5h189h190q27 0 45.5 -18.5t18.5 -45.5v-1137q0 -27 -18.5 -45t-45.5 -18t-45 18.5t-18 44.5v1074h-316q-27 0 -45 18.5t-18 44.5zM569 1200q0 27 17.5 45.5t44.5 18.5h190q27 0 45.5 -18.5t18.5 -45.5t-18.5 -45t-45.5 -18h-190 q-27 0 -44.5 18.5t-17.5 44.5z" />
<glyph unicode="u" d="M0 188v1012q0 27 18.5 45.5t44.5 18.5q27 0 45.5 -18.5t18.5 -45.5v-985l88 -88h453l90 88v985q0 27 18.5 45.5t44.5 18.5q27 0 45.5 -18.5t18.5 -45.5v-1012q0 -25 -19 -43l-127 -127q-18 -18 -45 -18h-506q-29 0 -43 18l-127 127q-18 14 -18 43z" />
<glyph unicode="v" d="M0 379v821q0 27 18.5 45.5t44.5 18.5q27 0 45.5 -18.5t18.5 -45.5v-794l279 -279h73l279 279v794q0 27 18.5 45.5t44.5 18.5q27 0 45.5 -18.5t18.5 -45.5v-821q0 -25 -19 -45l-315 -316q-18 -18 -45 -18h-127q-27 0 -45 18l-316 316q-18 18 -18 45z" />
<glyph unicode="w" horiz-adv-x="1466" d="M0 188v64q0 27 18.5 45t44.5 18q27 0 45.5 -18t18.5 -45v-37l88 -88h295l90 88v23v962q0 27 18.5 45.5t45.5 18.5t45 -18.5t18 -45.5v-948v-37l88 -88h295l90 88v37q0 27 18.5 45t45.5 18t45 -18t18 -45v-64q0 -25 -18 -43l-127 -127q-18 -18 -45 -18h-349q-29 0 -43 18 l-81 82l-82 -82q-18 -18 -45 -18h-349q-29 0 -43 18l-127 127q-18 14 -18 43zM0 442v758q0 27 18.5 45.5t44.5 18.5q27 0 45.5 -18.5t18.5 -45.5v-758q0 -27 -18.5 -45t-45.5 -18t-45 18.5t-18 44.5zM1200 442v758q0 27 18.5 45.5t45.5 18.5t45 -18.5t18 -45.5v-758 q0 -27 -18.5 -45t-44.5 -18q-27 0 -45.5 18.5t-18.5 44.5z" />
<glyph unicode="x" horiz-adv-x="1026" d="M0 63v189q0 27 18 45l252 254q18 18 45 18t45 -18q18 -20 18.5 -46t-18.5 -44l-233 -234v-164q0 -27 -18.5 -45t-45.5 -18t-45 18.5t-18 44.5zM0 1010v190q0 27 18.5 45.5t44.5 18.5q27 0 45.5 -18.5t18.5 -45.5v-164l739 -739q18 -23 19 -45v-189q0 -27 -18.5 -45 t-45.5 -18t-45 18.5t-18 44.5v164l-740 740q-18 14 -18 43zM506 757.5q0 26.5 18 45.5l234 233v164q0 27 18.5 45.5t44.5 18.5q27 0 45.5 -18.5t18.5 -45.5v-190q0 -25 -19 -43l-254 -254q-18 -18 -43 -19q-27 0 -45 19q-18 18 -18 44.5z" />
<glyph unicode="y" d="M0 188v64q0 27 18.5 45t44.5 18q27 0 45.5 -18t18.5 -45v-37l88 -88h453l90 88v985q0 27 18.5 45.5t44.5 18.5q27 0 45.5 -18.5t18.5 -45.5v-1012q0 -25 -19 -43l-127 -127q-18 -18 -45 -18h-506q-29 0 -43 18l-127 127q-18 14 -18 43zM0 600v600q0 27 18.5 45.5 t44.5 18.5q27 0 45.5 -18.5t18.5 -45.5v-573l88 -90h416q27 0 45 -18.5t18 -45.5t-18.5 -45t-44.5 -18h-443q-25 0 -43 18l-127 127q-18 18 -18 45z" />
<glyph unicode="z" d="M0 1200q0 27 18.5 45.5t44.5 18.5h285q27 0 44.5 -18.5t17.5 -45.5t-17.5 -45t-44.5 -18h-285q-27 0 -45 18.5t-18 44.5zM8 33q-9 16 -9 31q0 17 11 34l692 1039h-165q-27 0 -45.5 18.5t-18.5 44.5q0 27 18.5 45.5t45.5 18.5h284q39 0 56 -35q7 -17 7 -32q0 -18 -10 -32 l-694 -1038h168q27 0 44.5 -18.5t17.5 -45.5t-17.5 -45t-44.5 -18h-285q-41 0 -55 33zM473 63q0 27 18.5 45.5t45.5 18.5h284q27 0 45.5 -18.5t18.5 -45.5t-18.5 -45t-45.5 -18h-284q-27 0 -45.5 18.5t-18.5 44.5z" />
<glyph unicode="&#x401;" d="M0 188v254q0 27 18.5 45.5t44.5 18.5q27 0 45.5 -18.5t18.5 -45.5v-227l88 -88h606q27 0 45.5 -18.5t18.5 -45.5t-18.5 -45t-45.5 -18h-633q-29 0 -43 18l-127 127q-18 14 -18 43zM0 631v442q0 27 18 45l127 127q14 18 43 19h633q27 0 45.5 -18.5t18.5 -45.5t-18.5 -45 t-45.5 -18h-606l-88 -90v-353h567q27 0 45.5 -18.5t18.5 -44.5q0 -27 -18.5 -44.5t-45.5 -17.5h-631q-27 0 -45 17.5t-18 44.5zM225 1415q0 27 17.5 45.5t46.5 18.5t46 -18.5t17 -45.5t-18.5 -45t-44.5 -18q-27 0 -45.5 18.5t-18.5 44.5zM573 1415q0 27 17.5 45.5t46.5 18.5 t46 -18.5t17 -45.5t-18 -45t-45 -18t-45.5 18.5t-18.5 44.5z" />
<glyph unicode="&#x404;" horiz-adv-x="1021" d="M0 188v885q0 27 18 45l127 127q14 18 43 19h160q27 0 44.5 -18.5t17.5 -45.5t-17.5 -45t-44.5 -18h-133l-88 -90v-832l88 -88h133q27 0 44.5 -18.5t17.5 -45.5t-17.5 -45t-44.5 -18h-160q-29 0 -43 18l-127 127q-18 14 -18 43zM190 631q0 27 18.5 45t45.5 18h377 q27 0 45 -18.5t18 -44.5q0 -27 -18.5 -44.5t-44.5 -17.5h-377q-27 0 -45.5 17.5t-18.5 44.5zM473 63q0 27 18.5 45.5t45.5 18.5h131l90 88v37q0 27 18.5 45t44.5 18q27 0 45.5 -18t18.5 -45v-64q0 -25 -19 -43l-127 -127q-18 -18 -45 -18h-157q-27 0 -45.5 18.5t-18.5 44.5z M473 1200q0 27 18.5 45.5t45.5 18.5h157q27 0 45 -19l127 -127q18 -23 19 -45v-63q0 -27 -18.5 -44.5t-45.5 -17.5t-45 17.5t-18 44.5v37l-90 90h-131q-27 0 -45.5 18.5t-18.5 44.5z" />
<glyph unicode="&#x405;" d="M0 188v64q0 27 18.5 45t44.5 18q27 0 45.5 -18t18.5 -45v-37l88 -88h133q27 0 44.5 -18.5t17.5 -45.5t-17.5 -45t-44.5 -18h-160q-29 0 -43 18l-127 127q-18 14 -18 43zM0 788v285q0 27 18 45l127 127q14 18 43 19h160q27 0 44.5 -18.5t17.5 -45.5t-17.5 -45t-44.5 -18 h-133l-88 -90v-216l719 -299q16 -8 27.5 -23t11.5 -36v-285q0 -25 -19 -43l-127 -127q-18 -18 -45 -18h-157q-27 0 -45.5 18.5t-18.5 44.5q0 27 18.5 45.5t45.5 18.5h131l90 88v217l-719 299q-39 14 -39 57zM473 1200q0 27 18.5 45.5t45.5 18.5h157q27 0 45 -19l127 -127 q18 -23 19 -45v-63q0 -27 -18.5 -44.5t-45.5 -17.5t-45 17.5t-18 44.5v37l-90 90h-131q-27 0 -45.5 18.5t-18.5 44.5z" />
<glyph unicode="&#x406;" horiz-adv-x="581" d="M0 63q0 27 18.5 45.5t44.5 18.5h95v1010h-95q-27 0 -45 18.5t-18 44.5q0 27 18.5 45.5t44.5 18.5h316q27 0 45 -18.5t18 -45.5t-18 -45t-45 -18h-94v-1010h94q27 0 45 -18.5t18 -45.5t-18 -45t-45 -18h-316q-27 0 -45 18.5t-18 44.5z" />
<glyph unicode="&#x407;" horiz-adv-x="581" d="M0 63q0 27 18.5 45.5t44.5 18.5h95v1010h-95q-27 0 -45 18.5t-18 44.5q0 27 18.5 45.5t44.5 18.5h316q27 0 45 -18.5t18 -45.5t-18 -45t-45 -18h-94v-1010h94q27 0 45 -18.5t18 -45.5t-18 -45t-45 -18h-316q-27 0 -45 18.5t-18 44.5zM0 1415q0 27 17.5 45.5t45.5 18.5 q29 0 46.5 -18.5t17.5 -45.5t-17.5 -45t-46.5 -18t-46 18.5t-17 44.5zM315 1415q0 27 17.5 45.5t46.5 18.5t46 -18.5t17 -45.5t-17 -45t-46 -18t-46.5 18.5t-17.5 44.5z" />
<glyph unicode="&#x408;" d="M0 188v64q0 27 18.5 45t44.5 18q27 0 45.5 -18t18.5 -45v-37l88 -88h453l90 88v922h-252q-27 0 -45.5 18.5t-18.5 44.5q0 27 18.5 45.5t45.5 18.5h315q27 0 45.5 -18.5t18.5 -45.5v-1012q0 -25 -19 -43l-127 -127q-18 -18 -45 -18h-506q-29 0 -43 18l-127 127 q-18 14 -18 43z" />
<glyph unicode="&#x40e;" d="M0 188v64q0 27 18.5 45t44.5 18q27 0 45.5 -18t18.5 -45v-37l88 -88h453l90 88v985q0 27 18.5 45.5t44.5 18.5q27 0 45.5 -18.5t18.5 -45.5v-1012q0 -25 -19 -43l-127 -127q-18 -18 -45 -18h-506q-29 0 -43 18l-127 127q-18 14 -18 43zM0 600v600q0 27 18.5 45.5 t44.5 18.5q27 0 45.5 -18.5t18.5 -45.5v-573l88 -90h416q27 0 45 -18.5t18 -45.5t-18.5 -45t-44.5 -18h-443q-25 0 -43 18l-127 127q-18 18 -18 45zM205 1448v27q0 27 18.5 45t44.5 18q27 0 45.5 -17.5t18.5 -45.5l88 -89h43l88 89q0 27 18.5 45t44.5 18q27 0 45.5 -17.5 t18.5 -45.5v-27q0 -29 -19 -43l-127 -127q-16 -18 -43 -18h-96q-29 0 -43 18l-127 127q-18 14 -18 43z" />
<glyph unicode="&#x410;" d="M0 63v222q0 27 18.5 45t44.5 18q27 0 45.5 -18.5t18.5 -44.5v-222q0 -27 -18.5 -45t-45.5 -18t-45 18.5t-18 44.5zM0 473v600q0 27 18 45l127 127q14 18 43 19h506q27 0 45 -19l127 -127q18 -23 19 -45v-409q0 -27 -18.5 -45.5t-45.5 -18.5t-45 18.5t-18 45.5v383l-90 90 h-453l-88 -90v-510h694q27 0 45.5 -18.5t18.5 -45.5v-410q0 -27 -18.5 -45t-45.5 -18t-45 18.5t-18 44.5v347h-695q-25 0 -45 18q-18 18 -18 45z" />
<glyph unicode="&#x411;" d="M0 63q0 27 18.5 45.5t44.5 18.5h605l90 90v420l-90 90h-416q-27 0 -45.5 18.5t-18.5 45.5t18.5 45t45.5 18h442q23 0 45 -18l127 -127q18 -23 19 -45v-474q0 -25 -19 -45l-127 -127q-18 -18 -45 -18h-631q-27 0 -45 18.5t-18 44.5zM0 254v946q0 27 18.5 45.5t44.5 18.5 h758q27 0 45.5 -18.5t18.5 -45.5t-18.5 -45t-45.5 -18h-694v-883q0 -27 -18.5 -45.5t-45.5 -18.5t-45 18.5t-18 45.5z" />
<glyph unicode="&#x412;" d="M0 63v947q0 27 18.5 45t44.5 18q27 0 45.5 -18.5t18.5 -44.5v-316h479l88 90v263l-88 90h-543q-27 0 -45 18.5t-18 44.5q0 27 18.5 45.5t44.5 18.5h568q27 0 45 -19l127 -127q18 -18 18 -45v-315q0 -27 -18 -45l-51 -49l114 -113q18 -23 19 -45v-318q0 -25 -19 -43 l-127 -127q-18 -18 -45 -18h-442q-27 0 -45.5 18.5t-18.5 44.5q0 27 18.5 45.5t45.5 18.5h416l90 88v264l-90 90h-37h-504v-506q0 -27 -18.5 -45t-45.5 -18t-45 18.5t-18 44.5z" />
<glyph unicode="&#x413;" horiz-adv-x="1026" d="M0 63v947q0 27 18.5 45t44.5 18q27 0 45.5 -18.5t18.5 -44.5v-947q0 -27 -18.5 -45t-45.5 -18t-45 18.5t-18 44.5zM0 1200q0 27 18.5 45.5t44.5 18.5h758q27 0 45.5 -18.5t18.5 -45.5t-18.5 -45t-45.5 -18h-758q-27 0 -45 18.5t-18 44.5z" />
<glyph unicode="&#x414;" d="M0 63q0 27 18.5 45.5t44.5 18.5h885q27 0 45.5 -18.5t18.5 -45.5v-409q0 -27 -18.5 -45.5t-45.5 -18.5t-45 18.5t-18 45.5v346h-758v-346q0 -27 -18.5 -45.5t-45.5 -18.5t-45 18.5t-18 45.5v409zM127 254v631q0 27 18 45l316 315q18 18 45 19h317q25 0 43.5 -18.5 t18.5 -45.5v-946q0 -27 -18.5 -45.5t-45.5 -18.5t-45 18.5t-18 45.5v883h-226l-278 -279v-604q0 -27 -18.5 -45.5t-45.5 -18.5t-45 18.5t-18 45.5z" />
<glyph unicode="&#x415;" d="M0 188v254q0 27 18.5 45.5t44.5 18.5q27 0 45.5 -18.5t18.5 -45.5v-227l88 -88h606q27 0 45.5 -18.5t18.5 -45.5t-18.5 -45t-45.5 -18h-633q-29 0 -43 18l-127 127q-18 14 -18 43zM0 631v442q0 27 18 45l127 127q14 18 43 19h633q27 0 45.5 -18.5t18.5 -45.5t-18.5 -45 t-45.5 -18h-606l-88 -90v-353h567q27 0 45.5 -18.5t18.5 -44.5q0 -27 -18.5 -44.5t-45.5 -17.5h-631q-27 0 -45 17.5t-18 44.5z" />
<glyph unicode="&#x416;" horiz-adv-x="1466" d="M2 63q0 27 18 46l533 567q18 18 45 18h107l512 551q18 18 44.5 18.5t45.5 -18.5q18 -18 18 -44.5t-18 -45.5l-533 -567q-18 -18 -45 -19h-106l-512 -551q-18 -18 -45 -18t-46 18q-18 18 -18 45zM2 1200q0 27 18 45t46 19q27 0 45 -19l405 -442q18 -18 18.5 -44t-18.5 -46 q-18 -18 -45 -18.5t-45 18.5l-406 442q-18 18 -18 45zM600 63v379q0 27 18.5 45.5t45.5 18.5t45 -18.5t18 -45.5v-379q0 -27 -18.5 -45t-44.5 -18q-27 0 -45.5 18.5t-18.5 44.5zM600 821v389q0 27 18.5 45.5t45.5 18.5t45 -18.5t18 -45.5v-389q0 -27 -18.5 -45t-44.5 -18 q-27 0 -45.5 18.5t-18.5 44.5zM793 504.5q0 25.5 18 46.5q18 18 45 18t45 -18l406 -442q18 -18 18 -45t-18 -46q-18 -18 -45 -18t-45 18l-406 443q-18 18 -18 43.5z" />
<glyph unicode="&#x417;" horiz-adv-x="1026" d="M0 188v64q0 27 18.5 45t44.5 18q27 0 45.5 -18t18.5 -45v-37l88 -88h453l90 88v291q0 27 18.5 45t44.5 18q27 0 45.5 -18.5t18.5 -44.5v-318q0 -25 -19 -43l-127 -127q-18 -18 -45 -18h-506q-29 0 -43 18l-127 127q-18 14 -18 43zM0 1010v63q0 27 18 45l127 127 q14 18 43 19h506q27 0 45 -19l127 -127q18 -23 19 -45v-315q0 -25 -19 -45l-127 -125q-18 -18 -45 -19h-506q-27 0 -44 17.5t-17 44.5t17.5 45t43.5 18h480l90 90v263l-90 90h-453l-88 -90v-37q0 -27 -18.5 -44.5t-45.5 -17.5t-45 17.5t-18 44.5z" />
<glyph unicode="&#x418;" d="M0 63v1137q0 27 18.5 45.5t44.5 18.5q27 0 45.5 -18.5t18.5 -45.5v-983l631 631v352q0 27 18.5 45.5t44.5 18.5q27 0 45.5 -18.5t18.5 -45.5v-379q0 -25 -19 -45l-757 -758q-29 -29 -70 -12q-18 6 -28.5 22.5t-10.5 34.5zM758 63v506q0 27 18.5 45.5t44.5 18.5 q27 0 45.5 -18.5t18.5 -45.5v-506q0 -27 -18.5 -45t-45.5 -18t-45 18.5t-18 44.5z" />
<glyph unicode="&#x419;" d="M0 63v1137q0 27 18.5 45.5t44.5 18.5q27 0 45.5 -18.5t18.5 -45.5v-983l631 631v352q0 27 18.5 45.5t44.5 18.5q27 0 45.5 -18.5t18.5 -45.5v-379q0 -25 -19 -45l-757 -758q-29 -29 -70 -12q-18 6 -28.5 22.5t-10.5 34.5zM205 1448v27q0 27 18.5 45t44.5 18 q27 0 45.5 -17.5t18.5 -45.5l88 -89h43l88 89q0 27 18.5 45t44.5 18q27 0 45.5 -17.5t18.5 -45.5v-27q0 -29 -19 -43l-127 -127q-16 -18 -43 -18h-96q-29 0 -43 18l-127 127q-18 14 -18 43zM758 63v506q0 27 18.5 45.5t44.5 18.5q27 0 45.5 -18.5t18.5 -45.5v-506 q0 -27 -18.5 -45t-45.5 -18t-45 18.5t-18 44.5z" />
<glyph unicode="&#x41a;" horiz-adv-x="1026" d="M0 63v568q0 27 18 45t45 18h164l549 551q18 18 45 18.5t45 -18.5q18 -18 18.5 -44.5t-18.5 -45.5l-569 -567q-18 -18 -45 -19h-125v-506q0 -27 -18.5 -45t-45.5 -18t-45 18.5t-18 44.5zM0 821v379q0 27 18.5 45.5t44.5 18.5q27 0 45.5 -18.5t18.5 -45.5v-379 q0 -27 -18.5 -45t-45.5 -18t-45 18.5t-18 44.5zM315.5 504.5q-0.5 25.5 18.5 46.5q18 18 45 18t45 -18l442 -442q18 -18 18.5 -45t-18.5 -46q-18 -18 -45 -18t-45 18l-442 443q-18 18 -18.5 43.5z" />
<glyph unicode="&#x41b;" d="M0 63v822q0 27 18 45l316 315q18 18 45 19h127q27 0 45 -19l315 -315q18 -23 19 -45v-822q0 -27 -18.5 -45t-45.5 -18t-45 18.5t-18 44.5v795l-279 279h-73l-279 -279v-795q0 -27 -18.5 -45t-45.5 -18t-45 18.5t-18 44.5z" />
<glyph unicode="&#x41c;" horiz-adv-x="1466" d="M0 63v758q0 27 18.5 45.5t44.5 18.5q27 0 45.5 -18.5t18.5 -45.5v-758q0 -27 -18.5 -45t-45.5 -18t-45 18.5t-18 44.5zM0 1010v190q0 18 10 34.5t29 22.5q41 16 70 -12l555 -555l555 555q29 29 69 12q16 -6 27.5 -22t11.5 -35v-190q0 -27 -18.5 -44.5t-44.5 -17.5 q-27 0 -45.5 17.5t-18.5 44.5v37l-473 -474v-510q0 -27 -18.5 -45t-44.5 -18q-27 0 -45.5 18.5t-18.5 44.5v510l-473 474v-37q0 -27 -18.5 -44.5t-45.5 -17.5t-45 17.5t-18 44.5zM1200 63v758q0 27 18.5 45.5t45.5 18.5t45 -18.5t18 -45.5v-758q0 -27 -18.5 -45t-44.5 -18 q-27 0 -45.5 18.5t-18.5 44.5z" />
<glyph unicode="&#x41d;" d="M0 63v379q0 27 18.5 45.5t44.5 18.5q27 0 45.5 -18.5t18.5 -45.5v-379q0 -27 -18.5 -45t-45.5 -18t-45 18.5t-18 44.5zM0 631v569q0 27 18.5 45.5t44.5 18.5q27 0 45.5 -18.5t18.5 -45.5v-506h694q20 0 39 -12q25 -23 25 -51v-568q0 -27 -18.5 -45t-45.5 -18t-45 18.5 t-18 44.5v506h-695q-27 0 -45 17.5t-18 44.5zM758 821v379q0 27 18.5 45.5t44.5 18.5q27 0 45.5 -18.5t18.5 -45.5v-379q0 -27 -18.5 -45t-45.5 -18t-45 18.5t-18 44.5z" />
<glyph unicode="&#x41e;" d="M0 188v885q0 27 18 45l127 127q14 18 43 19h160q27 0 44.5 -18.5t17.5 -45.5t-17.5 -45t-44.5 -18h-133l-88 -90v-832l88 -88h133q27 0 44.5 -18.5t17.5 -45.5t-17.5 -45t-44.5 -18h-160q-29 0 -43 18l-127 127q-18 14 -18 43zM473 63q0 27 18.5 45.5t45.5 18.5h131 l90 88v832l-90 90h-131q-27 0 -45.5 18.5t-18.5 44.5q0 27 18.5 45.5t45.5 18.5h157q27 0 45 -19l127 -127q18 -23 19 -45v-885q0 -25 -19 -43l-127 -127q-18 -18 -45 -18h-157q-27 0 -45.5 18.5t-18.5 44.5z" />
<glyph unicode="&#x41f;" d="M0 63v947q0 27 18.5 45t44.5 18q27 0 45.5 -18.5t18.5 -44.5v-947q0 -27 -18.5 -45t-45.5 -18t-45 18.5t-18 44.5zM0 1200q0 27 18.5 44.5t44.5 17.5h758q27 0 45.5 -18.5t18.5 -45.5v-1135q0 -27 -18.5 -45t-45.5 -18t-45 18.5t-18 44.5v1074h-695q-27 0 -45 18.5 t-18 44.5z" />
<glyph unicode="&#x420;" d="M0 63v947q0 27 18.5 45t44.5 18q27 0 45.5 -18.5t18.5 -44.5v-947q0 -27 -18.5 -45t-45.5 -18t-45 18.5t-18 44.5zM0 1200q0 27 18.5 45.5t44.5 18.5h631q27 0 45 -19l127 -127q18 -23 19 -45v-473q0 -25 -19 -45l-127 -127q-23 -18 -45 -18h-442q-27 0 -45.5 18 t-18.5 45t18.5 45.5t45.5 18.5h416l90 90v420l-90 90h-605q-27 0 -45 18.5t-18 44.5z" />
<glyph unicode="&#x421;" horiz-adv-x="1021" d="M0 188v885q0 27 18 45l127 127q14 18 43 19h160q27 0 44.5 -18.5t17.5 -45.5t-17.5 -45t-44.5 -18h-133l-88 -90v-832l88 -88h133q27 0 44.5 -18.5t17.5 -45.5t-17.5 -45t-44.5 -18h-160q-29 0 -43 18l-127 127q-18 14 -18 43zM473 63q0 27 18.5 45.5t45.5 18.5h131 l90 88v37q0 27 18.5 45t44.5 18q27 0 45.5 -18t18.5 -45v-64q0 -25 -19 -43l-127 -127q-18 -18 -45 -18h-157q-27 0 -45.5 18.5t-18.5 44.5zM473 1200q0 27 18.5 45.5t45.5 18.5h157q27 0 45 -19l127 -127q18 -23 19 -45v-63q0 -27 -18.5 -44.5t-45.5 -17.5t-45 17.5 t-18 44.5v37l-90 90h-131q-27 0 -45.5 18.5t-18.5 44.5z" />
<glyph unicode="&#x422;" d="M0 1200q0 27 18.5 45.5t44.5 18.5h379q27 0 45.5 -18.5t18.5 -45.5v-1137q0 -27 -18.5 -45t-45.5 -18t-45 18.5t-18 44.5v1074h-316q-27 0 -45 18.5t-18 44.5zM569 1200q0 27 17.5 45.5t44.5 18.5h190q27 0 45.5 -18.5t18.5 -45.5t-18.5 -45t-45.5 -18h-190 q-27 0 -44.5 18.5t-17.5 44.5z" />
<glyph unicode="&#x423;" d="M0 188v64q0 27 18.5 45t44.5 18q27 0 45.5 -18t18.5 -45v-37l88 -88h453l90 88v985q0 27 18.5 45.5t44.5 18.5q27 0 45.5 -18.5t18.5 -45.5v-1012q0 -25 -19 -43l-127 -127q-18 -18 -45 -18h-506q-29 0 -43 18l-127 127q-18 14 -18 43zM0 600v600q0 27 18.5 45.5 t44.5 18.5q27 0 45.5 -18.5t18.5 -45.5v-573l88 -90h416q27 0 45 -18.5t18 -45.5t-18.5 -45t-44.5 -18h-443q-25 0 -43 18l-127 127q-18 18 -18 45z" />
<glyph unicode="&#x424;" horiz-adv-x="1466" d="M0 475v473q0 23 18 45l127 127q20 18 45 19h285q27 0 45.5 -18.5t18.5 -45.5t-18.5 -45t-45.5 -18h-258l-90 -90v-420l90 -90h447q27 0 45 -18.5t18 -45.5v-285q0 -27 -18.5 -45t-44.5 -18q-27 0 -45.5 18.5t-18.5 44.5v222h-410q-27 0 -45 18l-127 127q-18 20 -18 45z M600 537v673q0 27 18.5 45.5t45.5 18.5t45 -18.5t18 -45.5v-673q0 -29 -18.5 -46.5t-44.5 -17.5q-27 0 -45.5 18.5t-18.5 45.5zM788 346q0 27 18.5 45.5t45.5 18.5h258l90 90v420l-90 90h-258q-27 0 -45.5 18.5t-18.5 44.5q0 27 18.5 45.5t45.5 18.5h285q27 0 45 -19 l127 -127q18 -23 18 -45v-473q0 -25 -18 -45l-127 -127q-23 -18 -45 -18h-285q-27 0 -45.5 18t-18.5 45z" />
<glyph unicode="&#x425;" horiz-adv-x="1026" d="M0 63v189q0 27 18 45l252 254q18 18 45 18t45 -18q18 -20 18.5 -46t-18.5 -44l-233 -234v-164q0 -27 -18.5 -45t-45.5 -18t-45 18.5t-18 44.5zM0 1010v190q0 27 18.5 45.5t44.5 18.5q27 0 45.5 -18.5t18.5 -45.5v-164l739 -739q18 -23 19 -45v-189q0 -27 -18.5 -45 t-45.5 -18t-45 18.5t-18 44.5v164l-740 740q-18 14 -18 43zM506 757.5q0 26.5 18 45.5l234 233v164q0 27 18.5 45.5t44.5 18.5q27 0 45.5 -18.5t18.5 -45.5v-190q0 -25 -19 -43l-254 -254q-18 -18 -43 -19q-27 0 -45 19q-18 18 -18 44.5z" />
<glyph unicode="&#x426;" d="M0 61v1139q0 27 18.5 45.5t44.5 18.5q27 0 45.5 -18.5t18.5 -45.5v-1075h821q20 0 39 -12q25 -23 25 -52v-362q0 -27 -18.5 -45.5t-45.5 -18.5t-45 18.5t-18 45.5v301h-822q-27 0 -45 17.5t-18 43.5zM758 252v948q0 27 18.5 45.5t44.5 18.5q27 0 45.5 -18.5t18.5 -45.5 v-948q0 -27 -18.5 -45.5t-45.5 -18.5t-45 18.5t-18 45.5z" />
<glyph unicode="&#x427;" d="M0 600v610q0 27 18.5 45.5t44.5 18.5q27 0 45.5 -18.5t18.5 -45.5v-583l90 -90h416q27 0 45 -18.5t18 -45.5t-18.5 -45t-44.5 -18h-443q-25 0 -45 18l-127 127q-18 20 -18 45zM758 63v1147q0 27 18.5 45.5t44.5 18.5q27 0 45.5 -18.5t18.5 -45.5v-1147q0 -27 -18.5 -45 t-45.5 -18t-45 18.5t-18 44.5z" />
<glyph unicode="&#x428;" horiz-adv-x="1466" d="M0 61v1139q0 27 18.5 45.5t44.5 18.5q27 0 45.5 -18.5t18.5 -45.5v-1075h1073v1075q0 27 18.5 45.5t45.5 18.5t45 -18.5t18 -45.5v-1139q0 -27 -17.5 -44t-45.5 -17h-1201q-27 0 -45 17.5t-18 43.5zM602 252v948q0 27 18.5 45.5t45.5 18.5t45 -18.5t18 -45.5v-948 q0 -27 -18.5 -45.5t-44.5 -18.5q-27 0 -45.5 18.5t-18.5 45.5z" />
<glyph unicode="&#x429;" horiz-adv-x="1466" d="M0 61v1139q0 27 18.5 45.5t44.5 18.5q27 0 45.5 -18.5t18.5 -45.5v-1075h1264q20 0 39 -12q25 -23 24 -52v-362q0 -27 -18.5 -45.5t-44.5 -18.5q-27 0 -45.5 18.5t-18.5 45.5v301h-1264q-27 0 -45 17.5t-18 43.5zM600 252v948q0 27 18.5 45.5t45.5 18.5t45 -18.5 t18 -45.5v-948q0 -27 -18.5 -45.5t-44.5 -18.5q-27 0 -45.5 18.5t-18.5 45.5zM1200 252v948q0 27 18.5 45.5t45.5 18.5t45 -18.5t18 -45.5v-948q0 -27 -18.5 -45.5t-44.5 -18.5q-27 0 -45.5 18.5t-18.5 45.5z" />
<glyph unicode="&#x42a;" horiz-adv-x="1282" d="M0 1200q0 27 17.5 45.5t45.5 18.5h259q27 0 45 -18.5t18 -45.5v-946q0 -27 -18.5 -45.5t-44.5 -18.5q-27 0 -45.5 18.5t-18.5 45.5v883h-195q-27 0 -45 18.5t-18 44.5zM258 63q0 27 18.5 45.5t45.5 18.5h604l90 90v420l-90 90h-416q-27 0 -45.5 18.5t-18.5 45.5t18.5 45 t45.5 18h442q23 0 45 -18l127 -127q18 -23 19 -45v-474q0 -25 -19 -45l-127 -127q-18 -18 -45 -18h-630q-27 0 -45.5 18.5t-18.5 44.5z" />
<glyph unicode="&#x42b;" horiz-adv-x="1349" d="M0 63q0 27 18.5 45.5t44.5 18.5h605l90 90v420l-90 90h-416q-27 0 -45.5 18.5t-18.5 45.5t18.5 45t45.5 18h442q23 0 45 -18l127 -127q18 -23 19 -45v-474q0 -25 -19 -45l-127 -127q-18 -18 -45 -18h-631q-27 0 -45 18.5t-18 44.5zM0 254v946q0 27 18.5 45.5t44.5 18.5 q27 0 45.5 -18.5t18.5 -45.5v-946q0 -27 -18.5 -45.5t-45.5 -18.5t-45 18.5t-18 45.5zM1085 63v1137q0 27 18.5 45.5t45.5 18.5t45 -18.5t18 -45.5v-1137q0 -27 -18 -45t-45 -18t-45.5 18.5t-18.5 44.5z" />
<glyph unicode="&#x42c;" d="M0 63q0 27 18.5 45.5t44.5 18.5h605l90 90v420l-90 90h-416q-27 0 -45.5 18.5t-18.5 45.5t18.5 45t45.5 18h442q23 0 45 -18l127 -127q18 -23 19 -45v-474q0 -25 -19 -45l-127 -127q-18 -18 -45 -18h-631q-27 0 -45 18.5t-18 44.5zM0 254v946q0 27 18.5 45.5t44.5 18.5 q27 0 45.5 -18.5t18.5 -45.5v-946q0 -27 -18.5 -45.5t-45.5 -18.5t-45 18.5t-18 45.5z" />
<glyph unicode="&#x42d;" horiz-adv-x="1021" d="M0 188v64q0 27 18.5 45t44.5 18q27 0 45.5 -18t18.5 -45v-37l90 -88h131q27 0 45.5 -18.5t18.5 -45.5t-18.5 -45t-45.5 -18h-158q-27 0 -45 18l-127 127q-18 18 -18 43zM0 1010v63q0 23 18 45l127 127q18 18 45 19h158q27 0 45.5 -18.5t18.5 -45.5t-18.5 -45t-45.5 -18 h-131l-90 -90v-37q0 -27 -18.5 -44.5t-45.5 -17.5t-45 17.5t-18 44.5zM190 631q0 27 18.5 45t45.5 18h377q27 0 45 -18.5t18 -44.5q0 -27 -18.5 -44.5t-44.5 -17.5h-377q-27 0 -45.5 17.5t-18.5 44.5zM475 63q0 27 17.5 45.5t44.5 18.5h133l88 88v832l-88 90h-133 q-27 0 -44.5 18.5t-17.5 44.5q0 27 17.5 45.5t44.5 18.5h159q27 0 43 -19l127 -127q18 -18 19 -45v-885q0 -29 -19 -43l-127 -127q-16 -18 -43 -18h-159q-27 0 -44.5 18.5t-17.5 44.5z" />
<glyph unicode="&#x42e;" horiz-adv-x="1376" d="M0 63v379q0 27 18.5 45.5t44.5 18.5q27 0 45.5 -18.5t18.5 -45.5v-379q0 -27 -18.5 -45t-45.5 -18t-45 18.5t-18 44.5zM0 631v569q0 27 18.5 45.5t44.5 18.5q27 0 45.5 -18.5t18.5 -45.5v-506h336q20 0 39 -12q25 -23 24 -51v-416l88 -88h111q27 0 44 -18.5t17 -45.5 t-17 -45t-44 -18h-137q-29 0 -43 18l-127 127q-18 14 -19 43v381h-336q-27 0 -45 17.5t-18 44.5zM399 821v252q0 27 19 45l127 127q14 18 43 19h137q27 0 44 -18.5t17 -45.5t-17 -45t-44 -18h-111l-88 -90v-226q0 -27 -18.5 -45t-44.5 -18q-27 0 -45.5 18.5t-18.5 44.5z M850 63q0 27 18.5 45.5t44.5 18.5h109l90 88v832l-90 90h-109q-27 0 -45 18.5t-18 44.5q0 27 18.5 45.5t44.5 18.5h136q27 0 45 -19l127 -127q18 -23 18 -45v-885q0 -25 -18 -43l-127 -127q-18 -18 -45 -18h-136q-27 0 -45 18.5t-18 44.5z" />
<glyph unicode="&#x42f;" d="M0 63q0 27 18 46l304 301h-132q-25 0 -45 18l-127 127q-18 20 -18 45v473q0 23 18 45l127 127q18 18 45 19h631q27 0 45.5 -18.5t18.5 -45.5t-18.5 -45t-45.5 -18h-604l-90 -90v-420l90 -90h416q27 0 45 -18.5t18 -45.5t-18.5 -45t-44.5 -18h-133l-391 -392 q-18 -18 -46 -18q-27 0 -45 18t-18 45zM758 63v947q0 27 18.5 45t44.5 18q27 0 45.5 -18.5t18.5 -44.5v-947q0 -27 -18.5 -45t-45.5 -18t-45 18.5t-18 44.5z" />
<glyph unicode="&#x430;" d="M0 63v222q0 27 18.5 45t44.5 18q27 0 45.5 -18.5t18.5 -44.5v-222q0 -27 -18.5 -45t-45.5 -18t-45 18.5t-18 44.5zM0 473v600q0 27 18 45l127 127q14 18 43 19h506q27 0 45 -19l127 -127q18 -23 19 -45v-409q0 -27 -18.5 -45.5t-45.5 -18.5t-45 18.5t-18 45.5v383l-90 90 h-453l-88 -90v-510h694q27 0 45.5 -18.5t18.5 -45.5v-410q0 -27 -18.5 -45t-45.5 -18t-45 18.5t-18 44.5v347h-695q-25 0 -45 18q-18 18 -18 45z" />
<glyph unicode="&#x431;" d="M0 63q0 27 18.5 45.5t44.5 18.5h605l90 90v420l-90 90h-416q-27 0 -45.5 18.5t-18.5 45.5t18.5 45t45.5 18h442q23 0 45 -18l127 -127q18 -23 19 -45v-474q0 -25 -19 -45l-127 -127q-18 -18 -45 -18h-631q-27 0 -45 18.5t-18 44.5zM0 254v946q0 27 18.5 45.5t44.5 18.5 h758q27 0 45.5 -18.5t18.5 -45.5t-18.5 -45t-45.5 -18h-694v-883q0 -27 -18.5 -45.5t-45.5 -18.5t-45 18.5t-18 45.5z" />
<glyph unicode="&#x432;" d="M0 63v947q0 27 18.5 45t44.5 18q27 0 45.5 -18.5t18.5 -44.5v-316h479l88 90v263l-88 90h-543q-27 0 -45 18.5t-18 44.5q0 27 18.5 45.5t44.5 18.5h568q27 0 45 -19l127 -127q18 -18 18 -45v-315q0 -27 -18 -45l-51 -49l114 -113q18 -23 19 -45v-318q0 -25 -19 -43 l-127 -127q-18 -18 -45 -18h-442q-27 0 -45.5 18.5t-18.5 44.5q0 27 18.5 45.5t45.5 18.5h416l90 88v264l-90 90h-37h-504v-506q0 -27 -18.5 -45t-45.5 -18t-45 18.5t-18 44.5z" />
<glyph unicode="&#x433;" horiz-adv-x="1026" d="M0 63v947q0 27 18.5 45t44.5 18q27 0 45.5 -18.5t18.5 -44.5v-947q0 -27 -18.5 -45t-45.5 -18t-45 18.5t-18 44.5zM0 1200q0 27 18.5 45.5t44.5 18.5h758q27 0 45.5 -18.5t18.5 -45.5t-18.5 -45t-45.5 -18h-758q-27 0 -45 18.5t-18 44.5z" />
<glyph unicode="&#x434;" d="M0 63q0 27 18.5 45.5t44.5 18.5h885q27 0 45.5 -18.5t18.5 -45.5v-409q0 -27 -18.5 -45.5t-45.5 -18.5t-45 18.5t-18 45.5v346h-758v-346q0 -27 -18.5 -45.5t-45.5 -18.5t-45 18.5t-18 45.5v409zM127 254v631q0 27 18 45l316 315q18 18 45 19h317q25 0 43.5 -18.5 t18.5 -45.5v-946q0 -27 -18.5 -45.5t-45.5 -18.5t-45 18.5t-18 45.5v883h-226l-278 -279v-604q0 -27 -18.5 -45.5t-45.5 -18.5t-45 18.5t-18 45.5z" />
<glyph unicode="&#x435;" d="M0 188v254q0 27 18.5 45.5t44.5 18.5q27 0 45.5 -18.5t18.5 -45.5v-227l88 -88h606q27 0 45.5 -18.5t18.5 -45.5t-18.5 -45t-45.5 -18h-633q-29 0 -43 18l-127 127q-18 14 -18 43zM0 631v442q0 27 18 45l127 127q14 18 43 19h633q27 0 45.5 -18.5t18.5 -45.5t-18.5 -45 t-45.5 -18h-606l-88 -90v-353h567q27 0 45.5 -18.5t18.5 -44.5q0 -27 -18.5 -44.5t-45.5 -17.5h-631q-27 0 -45 17.5t-18 44.5z" />
<glyph unicode="&#x436;" horiz-adv-x="1466" d="M2 63q0 27 18 46l533 567q18 18 45 18h107l512 551q18 18 44.5 18.5t45.5 -18.5q18 -18 18 -44.5t-18 -45.5l-533 -567q-18 -18 -45 -19h-106l-512 -551q-18 -18 -45 -18t-46 18q-18 18 -18 45zM2 1200q0 27 18 45t46 19q27 0 45 -19l405 -442q18 -18 18.5 -44t-18.5 -46 q-18 -18 -45 -18.5t-45 18.5l-406 442q-18 18 -18 45zM600 63v379q0 27 18.5 45.5t45.5 18.5t45 -18.5t18 -45.5v-379q0 -27 -18.5 -45t-44.5 -18q-27 0 -45.5 18.5t-18.5 44.5zM600 821v389q0 27 18.5 45.5t45.5 18.5t45 -18.5t18 -45.5v-389q0 -27 -18.5 -45t-44.5 -18 q-27 0 -45.5 18.5t-18.5 44.5zM793 504.5q0 25.5 18 46.5q18 18 45 18t45 -18l406 -442q18 -18 18 -45t-18 -46q-18 -18 -45 -18t-45 18l-406 443q-18 18 -18 43.5z" />
<glyph unicode="&#x437;" horiz-adv-x="1026" d="M0 188v64q0 27 18.5 45t44.5 18q27 0 45.5 -18t18.5 -45v-37l88 -88h453l90 88v291q0 27 18.5 45t44.5 18q27 0 45.5 -18.5t18.5 -44.5v-318q0 -25 -19 -43l-127 -127q-18 -18 -45 -18h-506q-29 0 -43 18l-127 127q-18 14 -18 43zM0 1010v63q0 27 18 45l127 127 q14 18 43 19h506q27 0 45 -19l127 -127q18 -23 19 -45v-315q0 -25 -19 -45l-127 -125q-18 -18 -45 -19h-506q-27 0 -44 17.5t-17 44.5t17.5 45t43.5 18h480l90 90v263l-90 90h-453l-88 -90v-37q0 -27 -18.5 -44.5t-45.5 -17.5t-45 17.5t-18 44.5z" />
<glyph unicode="&#x438;" d="M0 63v1137q0 27 18.5 45.5t44.5 18.5q27 0 45.5 -18.5t18.5 -45.5v-983l631 631v352q0 27 18.5 45.5t44.5 18.5q27 0 45.5 -18.5t18.5 -45.5v-379q0 -25 -19 -45l-757 -758q-29 -29 -70 -12q-18 6 -28.5 22.5t-10.5 34.5zM758 63v506q0 27 18.5 45.5t44.5 18.5 q27 0 45.5 -18.5t18.5 -45.5v-506q0 -27 -18.5 -45t-45.5 -18t-45 18.5t-18 44.5z" />
<glyph unicode="&#x439;" d="M0 63v1137q0 27 18.5 45.5t44.5 18.5q27 0 45.5 -18.5t18.5 -45.5v-983l631 631v352q0 27 18.5 45.5t44.5 18.5q27 0 45.5 -18.5t18.5 -45.5v-379q0 -25 -19 -45l-757 -758q-29 -29 -70 -12q-18 6 -28.5 22.5t-10.5 34.5zM205 1448v27q0 27 18.5 45t44.5 18 q27 0 45.5 -17.5t18.5 -45.5l88 -89h43l88 89q0 27 18.5 45t44.5 18q27 0 45.5 -17.5t18.5 -45.5v-27q0 -29 -19 -43l-127 -127q-16 -18 -43 -18h-96q-29 0 -43 18l-127 127q-18 14 -18 43zM758 63v506q0 27 18.5 45.5t44.5 18.5q27 0 45.5 -18.5t18.5 -45.5v-506 q0 -27 -18.5 -45t-45.5 -18t-45 18.5t-18 44.5z" />
<glyph unicode="&#x43a;" horiz-adv-x="1026" d="M0 63v568q0 27 18 45t45 18h164l549 551q18 18 45 18.5t45 -18.5q18 -18 18.5 -44.5t-18.5 -45.5l-569 -567q-18 -18 -45 -19h-125v-506q0 -27 -18.5 -45t-45.5 -18t-45 18.5t-18 44.5zM0 821v379q0 27 18.5 45.5t44.5 18.5q27 0 45.5 -18.5t18.5 -45.5v-379 q0 -27 -18.5 -45t-45.5 -18t-45 18.5t-18 44.5zM315.5 504.5q-0.5 25.5 18.5 46.5q18 18 45 18t45 -18l442 -442q18 -18 18.5 -45t-18.5 -46q-18 -18 -45 -18t-45 18l-442 443q-18 18 -18.5 43.5z" />
<glyph unicode="&#x43b;" d="M0 63v822q0 27 18 45l316 315q18 18 45 19h127q27 0 45 -19l315 -315q18 -23 19 -45v-822q0 -27 -18.5 -45t-45.5 -18t-45 18.5t-18 44.5v795l-279 279h-73l-279 -279v-795q0 -27 -18.5 -45t-45.5 -18t-45 18.5t-18 44.5z" />
<glyph unicode="&#x43c;" horiz-adv-x="1466" d="M0 63v758q0 27 18.5 45.5t44.5 18.5q27 0 45.5 -18.5t18.5 -45.5v-758q0 -27 -18.5 -45t-45.5 -18t-45 18.5t-18 44.5zM0 1010v190q0 18 10 34.5t29 22.5q41 16 70 -12l555 -555l555 555q29 29 69 12q16 -6 27.5 -22t11.5 -35v-190q0 -27 -18.5 -44.5t-44.5 -17.5 q-27 0 -45.5 17.5t-18.5 44.5v37l-473 -474v-510q0 -27 -18.5 -45t-44.5 -18q-27 0 -45.5 18.5t-18.5 44.5v510l-473 474v-37q0 -27 -18.5 -44.5t-45.5 -17.5t-45 17.5t-18 44.5zM1200 63v758q0 27 18.5 45.5t45.5 18.5t45 -18.5t18 -45.5v-758q0 -27 -18.5 -45t-44.5 -18 q-27 0 -45.5 18.5t-18.5 44.5z" />
<glyph unicode="&#x43d;" d="M0 63v379q0 27 18.5 45.5t44.5 18.5q27 0 45.5 -18.5t18.5 -45.5v-379q0 -27 -18.5 -45t-45.5 -18t-45 18.5t-18 44.5zM0 631v569q0 27 18.5 45.5t44.5 18.5q27 0 45.5 -18.5t18.5 -45.5v-506h694q20 0 39 -12q25 -23 25 -51v-568q0 -27 -18.5 -45t-45.5 -18t-45 18.5 t-18 44.5v506h-695q-27 0 -45 17.5t-18 44.5zM758 821v379q0 27 18.5 45.5t44.5 18.5q27 0 45.5 -18.5t18.5 -45.5v-379q0 -27 -18.5 -45t-45.5 -18t-45 18.5t-18 44.5z" />
<glyph unicode="&#x43e;" d="M0 188v885q0 27 18 45l127 127q14 18 43 19h160q27 0 44.5 -18.5t17.5 -45.5t-17.5 -45t-44.5 -18h-133l-88 -90v-832l88 -88h133q27 0 44.5 -18.5t17.5 -45.5t-17.5 -45t-44.5 -18h-160q-29 0 -43 18l-127 127q-18 14 -18 43zM473 63q0 27 18.5 45.5t45.5 18.5h131 l90 88v832l-90 90h-131q-27 0 -45.5 18.5t-18.5 44.5q0 27 18.5 45.5t45.5 18.5h157q27 0 45 -19l127 -127q18 -23 19 -45v-885q0 -25 -19 -43l-127 -127q-18 -18 -45 -18h-157q-27 0 -45.5 18.5t-18.5 44.5z" />
<glyph unicode="&#x43f;" d="M0 63v947q0 27 18.5 45t44.5 18q27 0 45.5 -18.5t18.5 -44.5v-947q0 -27 -18.5 -45t-45.5 -18t-45 18.5t-18 44.5zM0 1200q0 27 18.5 44.5t44.5 17.5h758q27 0 45.5 -18.5t18.5 -45.5v-1135q0 -27 -18.5 -45t-45.5 -18t-45 18.5t-18 44.5v1074h-695q-27 0 -45 18.5 t-18 44.5z" />
<glyph unicode="&#x440;" d="M0 63v947q0 27 18.5 45t44.5 18q27 0 45.5 -18.5t18.5 -44.5v-947q0 -27 -18.5 -45t-45.5 -18t-45 18.5t-18 44.5zM0 1200q0 27 18.5 45.5t44.5 18.5h631q27 0 45 -19l127 -127q18 -23 19 -45v-473q0 -25 -19 -45l-127 -127q-23 -18 -45 -18h-442q-27 0 -45.5 18 t-18.5 45t18.5 45.5t45.5 18.5h416l90 90v420l-90 90h-605q-27 0 -45 18.5t-18 44.5z" />
<glyph unicode="&#x441;" horiz-adv-x="1021" d="M0 188v885q0 27 18 45l127 127q14 18 43 19h160q27 0 44.5 -18.5t17.5 -45.5t-17.5 -45t-44.5 -18h-133l-88 -90v-832l88 -88h133q27 0 44.5 -18.5t17.5 -45.5t-17.5 -45t-44.5 -18h-160q-29 0 -43 18l-127 127q-18 14 -18 43zM473 63q0 27 18.5 45.5t45.5 18.5h131 l90 88v37q0 27 18.5 45t44.5 18q27 0 45.5 -18t18.5 -45v-64q0 -25 -19 -43l-127 -127q-18 -18 -45 -18h-157q-27 0 -45.5 18.5t-18.5 44.5zM473 1200q0 27 18.5 45.5t45.5 18.5h157q27 0 45 -19l127 -127q18 -23 19 -45v-63q0 -27 -18.5 -44.5t-45.5 -17.5t-45 17.5 t-18 44.5v37l-90 90h-131q-27 0 -45.5 18.5t-18.5 44.5z" />
<glyph unicode="&#x442;" d="M0 1200q0 27 18.5 45.5t44.5 18.5h379q27 0 45.5 -18.5t18.5 -45.5v-1137q0 -27 -18.5 -45t-45.5 -18t-45 18.5t-18 44.5v1074h-316q-27 0 -45 18.5t-18 44.5zM569 1200q0 27 17.5 45.5t44.5 18.5h190q27 0 45.5 -18.5t18.5 -45.5t-18.5 -45t-45.5 -18h-190 q-27 0 -44.5 18.5t-17.5 44.5z" />
<glyph unicode="&#x443;" d="M0 188v64q0 27 18.5 45t44.5 18q27 0 45.5 -18t18.5 -45v-37l88 -88h453l90 88v985q0 27 18.5 45.5t44.5 18.5q27 0 45.5 -18.5t18.5 -45.5v-1012q0 -25 -19 -43l-127 -127q-18 -18 -45 -18h-506q-29 0 -43 18l-127 127q-18 14 -18 43zM0 600v600q0 27 18.5 45.5 t44.5 18.5q27 0 45.5 -18.5t18.5 -45.5v-573l88 -90h416q27 0 45 -18.5t18 -45.5t-18.5 -45t-44.5 -18h-443q-25 0 -43 18l-127 127q-18 18 -18 45z" />
<glyph unicode="&#x444;" horiz-adv-x="1466" d="M0 475v473q0 23 18 45l127 127q20 18 45 19h285q27 0 45.5 -18.5t18.5 -45.5t-18.5 -45t-45.5 -18h-258l-90 -90v-420l90 -90h447q27 0 45 -18.5t18 -45.5v-285q0 -27 -18.5 -45t-44.5 -18q-27 0 -45.5 18.5t-18.5 44.5v222h-410q-27 0 -45 18l-127 127q-18 20 -18 45z M600 537v673q0 27 18.5 45.5t45.5 18.5t45 -18.5t18 -45.5v-673q0 -29 -18.5 -46.5t-44.5 -17.5q-27 0 -45.5 18.5t-18.5 45.5zM788 346q0 27 18.5 45.5t45.5 18.5h258l90 90v420l-90 90h-258q-27 0 -45.5 18.5t-18.5 44.5q0 27 18.5 45.5t45.5 18.5h285q27 0 45 -19 l127 -127q18 -23 18 -45v-473q0 -25 -18 -45l-127 -127q-23 -18 -45 -18h-285q-27 0 -45.5 18t-18.5 45z" />
<glyph unicode="&#x445;" horiz-adv-x="1026" d="M0 63v189q0 27 18 45l252 254q18 18 45 18t45 -18q18 -20 18.5 -46t-18.5 -44l-233 -234v-164q0 -27 -18.5 -45t-45.5 -18t-45 18.5t-18 44.5zM0 1010v190q0 27 18.5 45.5t44.5 18.5q27 0 45.5 -18.5t18.5 -45.5v-164l739 -739q18 -23 19 -45v-189q0 -27 -18.5 -45 t-45.5 -18t-45 18.5t-18 44.5v164l-740 740q-18 14 -18 43zM506 757.5q0 26.5 18 45.5l234 233v164q0 27 18.5 45.5t44.5 18.5q27 0 45.5 -18.5t18.5 -45.5v-190q0 -25 -19 -43l-254 -254q-18 -18 -43 -19q-27 0 -45 19q-18 18 -18 44.5z" />
<glyph unicode="&#x446;" d="M0 61v1139q0 27 18.5 45.5t44.5 18.5q27 0 45.5 -18.5t18.5 -45.5v-1075h821q20 0 39 -12q25 -23 25 -52v-362q0 -27 -18.5 -45.5t-45.5 -18.5t-45 18.5t-18 45.5v301h-822q-27 0 -45 17.5t-18 43.5zM758 252v948q0 27 18.5 45.5t44.5 18.5q27 0 45.5 -18.5t18.5 -45.5 v-948q0 -27 -18.5 -45.5t-45.5 -18.5t-45 18.5t-18 45.5z" />
<glyph unicode="&#x447;" d="M0 600v610q0 27 18.5 45.5t44.5 18.5q27 0 45.5 -18.5t18.5 -45.5v-583l90 -90h416q27 0 45 -18.5t18 -45.5t-18.5 -45t-44.5 -18h-443q-25 0 -45 18l-127 127q-18 20 -18 45zM758 63v1147q0 27 18.5 45.5t44.5 18.5q27 0 45.5 -18.5t18.5 -45.5v-1147q0 -27 -18.5 -45 t-45.5 -18t-45 18.5t-18 44.5z" />
<glyph unicode="&#x448;" horiz-adv-x="1466" d="M0 61v1139q0 27 18.5 45.5t44.5 18.5q27 0 45.5 -18.5t18.5 -45.5v-1075h1073v1075q0 27 18.5 45.5t45.5 18.5t45 -18.5t18 -45.5v-1139q0 -27 -17.5 -44t-45.5 -17h-1201q-27 0 -45 17.5t-18 43.5zM602 252v948q0 27 18.5 45.5t45.5 18.5t45 -18.5t18 -45.5v-948 q0 -27 -18.5 -45.5t-44.5 -18.5q-27 0 -45.5 18.5t-18.5 45.5z" />
<glyph unicode="&#x449;" horiz-adv-x="1466" d="M0 61v1139q0 27 18.5 45.5t44.5 18.5q27 0 45.5 -18.5t18.5 -45.5v-1075h1264q20 0 39 -12q25 -23 24 -52v-362q0 -27 -18.5 -45.5t-44.5 -18.5q-27 0 -45.5 18.5t-18.5 45.5v301h-1264q-27 0 -45 17.5t-18 43.5zM600 252v948q0 27 18.5 45.5t45.5 18.5t45 -18.5 t18 -45.5v-948q0 -27 -18.5 -45.5t-44.5 -18.5q-27 0 -45.5 18.5t-18.5 45.5zM1200 252v948q0 27 18.5 45.5t45.5 18.5t45 -18.5t18 -45.5v-948q0 -27 -18.5 -45.5t-44.5 -18.5q-27 0 -45.5 18.5t-18.5 45.5z" />
<glyph unicode="&#x44a;" horiz-adv-x="1282" d="M0 1200q0 27 17.5 45.5t45.5 18.5h259q27 0 45 -18.5t18 -45.5v-946q0 -27 -18.5 -45.5t-44.5 -18.5q-27 0 -45.5 18.5t-18.5 45.5v883h-195q-27 0 -45 18.5t-18 44.5zM258 63q0 27 18.5 45.5t45.5 18.5h604l90 90v420l-90 90h-416q-27 0 -45.5 18.5t-18.5 45.5t18.5 45 t45.5 18h442q23 0 45 -18l127 -127q18 -23 19 -45v-474q0 -25 -19 -45l-127 -127q-18 -18 -45 -18h-630q-27 0 -45.5 18.5t-18.5 44.5z" />
<glyph unicode="&#x44b;" horiz-adv-x="1349" d="M0 63q0 27 18.5 45.5t44.5 18.5h605l90 90v420l-90 90h-416q-27 0 -45.5 18.5t-18.5 45.5t18.5 45t45.5 18h442q23 0 45 -18l127 -127q18 -23 19 -45v-474q0 -25 -19 -45l-127 -127q-18 -18 -45 -18h-631q-27 0 -45 18.5t-18 44.5zM0 254v946q0 27 18.5 45.5t44.5 18.5 q27 0 45.5 -18.5t18.5 -45.5v-946q0 -27 -18.5 -45.5t-45.5 -18.5t-45 18.5t-18 45.5zM1085 63v1137q0 27 18.5 45.5t45.5 18.5t45 -18.5t18 -45.5v-1137q0 -27 -18 -45t-45 -18t-45.5 18.5t-18.5 44.5z" />
<glyph unicode="&#x44c;" d="M0 63q0 27 18.5 45.5t44.5 18.5h605l90 90v420l-90 90h-416q-27 0 -45.5 18.5t-18.5 45.5t18.5 45t45.5 18h442q23 0 45 -18l127 -127q18 -23 19 -45v-474q0 -25 -19 -45l-127 -127q-18 -18 -45 -18h-631q-27 0 -45 18.5t-18 44.5zM0 254v946q0 27 18.5 45.5t44.5 18.5 q27 0 45.5 -18.5t18.5 -45.5v-946q0 -27 -18.5 -45.5t-45.5 -18.5t-45 18.5t-18 45.5z" />
<glyph unicode="&#x44d;" horiz-adv-x="1021" d="M0 188v64q0 27 18.5 45t44.5 18q27 0 45.5 -18t18.5 -45v-37l90 -88h131q27 0 45.5 -18.5t18.5 -45.5t-18.5 -45t-45.5 -18h-158q-27 0 -45 18l-127 127q-18 18 -18 43zM0 1010v63q0 23 18 45l127 127q18 18 45 19h158q27 0 45.5 -18.5t18.5 -45.5t-18.5 -45t-45.5 -18 h-131l-90 -90v-37q0 -27 -18.5 -44.5t-45.5 -17.5t-45 17.5t-18 44.5zM190 631q0 27 18.5 45t45.5 18h377q27 0 45 -18.5t18 -44.5q0 -27 -18.5 -44.5t-44.5 -17.5h-377q-27 0 -45.5 17.5t-18.5 44.5zM475 63q0 27 17.5 45.5t44.5 18.5h133l88 88v832l-88 90h-133 q-27 0 -44.5 18.5t-17.5 44.5q0 27 17.5 45.5t44.5 18.5h159q27 0 43 -19l127 -127q18 -18 19 -45v-885q0 -29 -19 -43l-127 -127q-16 -18 -43 -18h-159q-27 0 -44.5 18.5t-17.5 44.5z" />
<glyph unicode="&#x44e;" horiz-adv-x="1376" d="M0 63v379q0 27 18.5 45.5t44.5 18.5q27 0 45.5 -18.5t18.5 -45.5v-379q0 -27 -18.5 -45t-45.5 -18t-45 18.5t-18 44.5zM0 631v569q0 27 18.5 45.5t44.5 18.5q27 0 45.5 -18.5t18.5 -45.5v-506h336q20 0 39 -12q25 -23 24 -51v-416l88 -88h111q27 0 44 -18.5t17 -45.5 t-17 -45t-44 -18h-137q-29 0 -43 18l-127 127q-18 14 -19 43v381h-336q-27 0 -45 17.5t-18 44.5zM399 821v252q0 27 19 45l127 127q14 18 43 19h137q27 0 44 -18.5t17 -45.5t-17 -45t-44 -18h-111l-88 -90v-226q0 -27 -18.5 -45t-44.5 -18q-27 0 -45.5 18.5t-18.5 44.5z M850 63q0 27 18.5 45.5t44.5 18.5h109l90 88v832l-90 90h-109q-27 0 -45 18.5t-18 44.5q0 27 18.5 45.5t44.5 18.5h136q27 0 45 -19l127 -127q18 -23 18 -45v-885q0 -25 -18 -43l-127 -127q-18 -18 -45 -18h-136q-27 0 -45 18.5t-18 44.5z" />
<glyph unicode="&#x44f;" d="M0 63q0 27 18 46l304 301h-132q-25 0 -45 18l-127 127q-18 20 -18 45v473q0 23 18 45l127 127q18 18 45 19h631q27 0 45.5 -18.5t18.5 -45.5t-18.5 -45t-45.5 -18h-604l-90 -90v-420l90 -90h416q27 0 45 -18.5t18 -45.5t-18.5 -45t-44.5 -18h-133l-391 -392 q-18 -18 -46 -18q-27 0 -45 18t-18 45zM758 63v947q0 27 18.5 45t44.5 18q27 0 45.5 -18.5t18.5 -44.5v-947q0 -27 -18.5 -45t-45.5 -18t-45 18.5t-18 44.5z" />
<glyph unicode="&#x451;" d="M0 188v254q0 27 18.5 45.5t44.5 18.5q27 0 45.5 -18.5t18.5 -45.5v-227l88 -88h606q27 0 45.5 -18.5t18.5 -45.5t-18.5 -45t-45.5 -18h-633q-29 0 -43 18l-127 127q-18 14 -18 43zM0 631v442q0 27 18 45l127 127q14 18 43 19h633q27 0 45.5 -18.5t18.5 -45.5t-18.5 -45 t-45.5 -18h-606l-88 -90v-353h567q27 0 45.5 -18.5t18.5 -44.5q0 -27 -18.5 -44.5t-45.5 -17.5h-631q-27 0 -45 17.5t-18 44.5zM225 1415q0 27 17.5 45.5t46.5 18.5t46 -18.5t17 -45.5t-18.5 -45t-44.5 -18q-27 0 -45.5 18.5t-18.5 44.5zM573 1415q0 27 17.5 45.5t46.5 18.5 t46 -18.5t17 -45.5t-18 -45t-45 -18t-45.5 18.5t-18.5 44.5z" />
<glyph unicode="&#x454;" horiz-adv-x="1021" d="M0 188v885q0 27 18 45l127 127q14 18 43 19h160q27 0 44.5 -18.5t17.5 -45.5t-17.5 -45t-44.5 -18h-133l-88 -90v-832l88 -88h133q27 0 44.5 -18.5t17.5 -45.5t-17.5 -45t-44.5 -18h-160q-29 0 -43 18l-127 127q-18 14 -18 43zM190 631q0 27 18.5 45t45.5 18h377 q27 0 45 -18.5t18 -44.5q0 -27 -18.5 -44.5t-44.5 -17.5h-377q-27 0 -45.5 17.5t-18.5 44.5zM473 63q0 27 18.5 45.5t45.5 18.5h131l90 88v37q0 27 18.5 45t44.5 18q27 0 45.5 -18t18.5 -45v-64q0 -25 -19 -43l-127 -127q-18 -18 -45 -18h-157q-27 0 -45.5 18.5t-18.5 44.5z M473 1200q0 27 18.5 45.5t45.5 18.5h157q27 0 45 -19l127 -127q18 -23 19 -45v-63q0 -27 -18.5 -44.5t-45.5 -17.5t-45 17.5t-18 44.5v37l-90 90h-131q-27 0 -45.5 18.5t-18.5 44.5z" />
<glyph unicode="&#x455;" d="M0 188v64q0 27 18.5 45t44.5 18q27 0 45.5 -18t18.5 -45v-37l88 -88h133q27 0 44.5 -18.5t17.5 -45.5t-17.5 -45t-44.5 -18h-160q-29 0 -43 18l-127 127q-18 14 -18 43zM0 788v285q0 27 18 45l127 127q14 18 43 19h160q27 0 44.5 -18.5t17.5 -45.5t-17.5 -45t-44.5 -18 h-133l-88 -90v-216l719 -299q16 -8 27.5 -23t11.5 -36v-285q0 -25 -19 -43l-127 -127q-18 -18 -45 -18h-157q-27 0 -45.5 18.5t-18.5 44.5q0 27 18.5 45.5t45.5 18.5h131l90 88v217l-719 299q-39 14 -39 57zM473 1200q0 27 18.5 45.5t45.5 18.5h157q27 0 45 -19l127 -127 q18 -23 19 -45v-63q0 -27 -18.5 -44.5t-45.5 -17.5t-45 17.5t-18 44.5v37l-90 90h-131q-27 0 -45.5 18.5t-18.5 44.5z" />
<glyph unicode="&#x456;" horiz-adv-x="581" d="M0 63q0 27 18.5 45.5t44.5 18.5h95v1010h-95q-27 0 -45 18.5t-18 44.5q0 27 18.5 45.5t44.5 18.5h316q27 0 45 -18.5t18 -45.5t-18 -45t-45 -18h-94v-1010h94q27 0 45 -18.5t18 -45.5t-18 -45t-45 -18h-316q-27 0 -45 18.5t-18 44.5z" />
<glyph unicode="&#x457;" horiz-adv-x="581" d="M0 63q0 27 18.5 45.5t44.5 18.5h95v1010h-95q-27 0 -45 18.5t-18 44.5q0 27 18.5 45.5t44.5 18.5h316q27 0 45 -18.5t18 -45.5t-18 -45t-45 -18h-94v-1010h94q27 0 45 -18.5t18 -45.5t-18 -45t-45 -18h-316q-27 0 -45 18.5t-18 44.5zM0 1415q0 27 17.5 45.5t45.5 18.5 q29 0 46.5 -18.5t17.5 -45.5t-17.5 -45t-46.5 -18t-46 18.5t-17 44.5zM315 1415q0 27 17.5 45.5t46.5 18.5t46 -18.5t17 -45.5t-17 -45t-46 -18t-46.5 18.5t-17.5 44.5z" />
<glyph unicode="&#x458;" d="M0 188v64q0 27 18.5 45t44.5 18q27 0 45.5 -18t18.5 -45v-37l88 -88h453l90 88v922h-252q-27 0 -45.5 18.5t-18.5 44.5q0 27 18.5 45.5t45.5 18.5h315q27 0 45.5 -18.5t18.5 -45.5v-1012q0 -25 -19 -43l-127 -127q-18 -18 -45 -18h-506q-29 0 -43 18l-127 127 q-18 14 -18 43z" />
<glyph unicode="&#x490;" horiz-adv-x="1026" d="M0 63v947q0 27 18.5 45t44.5 18q27 0 45.5 -18.5t18.5 -44.5v-947q0 -27 -18.5 -45t-45.5 -18t-45 18.5t-18 44.5zM0 1200q0 27 18.5 45.5t44.5 18.5h695v211q0 27 18.5 45t44.5 18q27 0 45.5 -18.5t18.5 -44.5v-275q0 -27 -18.5 -45t-45.5 -18h-758q-27 0 -45 18.5 t-18 44.5z" />
<glyph unicode="&#x491;" horiz-adv-x="1026" d="M0 63v947q0 27 18.5 45t44.5 18q27 0 45.5 -18.5t18.5 -44.5v-947q0 -27 -18.5 -45t-45.5 -18t-45 18.5t-18 44.5zM0 1200q0 27 18.5 45.5t44.5 18.5h695v211q0 27 18.5 45t44.5 18q27 0 45.5 -18.5t18.5 -44.5v-275q0 -27 -18.5 -45t-45.5 -18h-758q-27 0 -45 18.5 t-18 44.5z" />
<glyph unicode="&#x2000;" horiz-adv-x="769" />
<glyph unicode="&#x2001;" horiz-adv-x="1538" />
<glyph unicode="&#x2002;" horiz-adv-x="769" />
<glyph unicode="&#x2003;" horiz-adv-x="1538" />
<glyph unicode="&#x2004;" horiz-adv-x="512" />
<glyph unicode="&#x2005;" horiz-adv-x="384" />
<glyph unicode="&#x2006;" horiz-adv-x="256" />
<glyph unicode="&#x2007;" horiz-adv-x="256" />
<glyph unicode="&#x2008;" horiz-adv-x="192" />
<glyph unicode="&#x2009;" horiz-adv-x="307" />
<glyph unicode="&#x200a;" horiz-adv-x="85" />
<glyph unicode="&#x202f;" horiz-adv-x="307" />
<glyph unicode="&#x205f;" horiz-adv-x="384" />
<glyph unicode="&#x25fc;" horiz-adv-x="1259" d="M0 0v1260h1260v-1260h-1260z" />
</font>
</defs>
</svg>
